<?xml version="1.0" encoding="utf-8"?>
<!-- Generator: Adobe Illustrator 24.0.0, SVG Export Plug-In . SVG Version: 6.00 Build 0)  -->
<svg version="1.1" id="Layer_1" xmlns="http://www.w3.org/2000/svg" xmlns:xlink="http://www.w3.org/1999/xlink" x="0px" y="0px"
	 viewBox="0 0 252.5 169.4" style="enable-background:new 0 0 252.5 169.4;" xml:space="preserve">
<style type="text/css">
	.st0{fill:#B3B3B3;stroke:#000000;stroke-width:0.755;stroke-miterlimit:10;}
	.st1{fill:#666666;}
	.st2{opacity:0.2;}
	.st3{fill:none;stroke:#000000;stroke-width:0.755;stroke-miterlimit:10;}
	.st4{opacity:0.1;enable-background:new    ;}
	.st5{fill:#808080;}
	.st6{fill:none;stroke:#000000;stroke-width:0.3775;stroke-miterlimit:10;}
	.st7{fill:#E6E6E6;}
	.st8{fill:none;stroke:#000000;stroke-width:0.5662;stroke-miterlimit:10;}
	.st9{opacity:0.3;}
	.st10{fill:none;}
	.st11{opacity:0.7;}
	.st12{fill:#FFFFFF;}
	.st13{opacity:0.6;}
	.st14{opacity:0.1;}
	.st15{fill:#7FC899;}
	.st16{fill:#598C6B;}
	.st17{fill:#D9EFE1;}
	.st18{fill:#6BA981;}
	.st19{fill:#518061;}
	.st20{fill:#B3B3B3;}
	.st21{opacity:0.2;enable-background:new    ;}
	.st22{opacity:0.4;enable-background:new    ;}
	.st23{fill:#181919;}
	.st24{fill:#FCFCFC;}
	.st25{fill:none;stroke:#FFFFFF;stroke-width:3.7723;stroke-linejoin:round;stroke-miterlimit:10;}
	.st26{fill:none;stroke:#FFFFFF;stroke-width:3.7723;stroke-miterlimit:10;}
</style>
<g>
	<g>
		<path class="st0" d="M29.1,131.5h75.3c2.6,0,4.8-2.1,4.8-4.8v-2.6H24.3v2.6C24.3,129.3,26.4,131.5,29.1,131.5z"/>
		<path class="st1" d="M97.9,68H40.6c-7.4,0-13.4,6-13.4,13.4v8.2v4.2v2.4c0,2.2,1.8,3.9,3.9,3.9h12.7c2.2,0,3.9-1.8,3.9-3.9V95
			l0.1-1.1c0.5-2.4,2.7-4.2,5.3-4.2h17.4c2.6,0,4.7,1.8,5.3,4.2L76,95v29.1h33.2V93.8v-4.2V79.3C109.1,73,104.1,68,97.9,68z"/>
		<g class="st2">
			<path d="M99.2,124.1v4.1c0,1.8-1.5,3.3-3.3,3.3h10c1.8,0,3.3-1.5,3.3-3.3v-4.1C109.1,124.1,99.2,124.1,99.2,124.1z"/>
			<g>
				<path d="M43,93.8L42.9,95v1.2c0,2.2-1.8,3.9-3.9,3.9h4.9c2.2,0,3.9-1.8,3.9-3.9V95l0.1-1.1c0.5-2.4,2.7-4.2,5.3-4.2h-4.9
					C45.7,89.6,43.6,91.4,43,93.8z"/>
				<path d="M97.9,68H93c6.2,0,11.3,5,11.3,11.3v10.3v4.2v30.3h4.9V93.8v-4.2V79.3C109.1,73,104.1,68,97.9,68z"/>
			</g>
		</g>
		<path class="st3" d="M97.9,68H40.6c-7.4,0-13.4,6-13.4,13.4v8.2v4.2v2.4c0,2.2,1.8,3.9,3.9,3.9h12.7c2.2,0,3.9-1.8,3.9-3.9V95
			l0.1-1.1c0.5-2.4,2.7-4.2,5.3-4.2h17.4c2.6,0,4.7,1.8,5.3,4.2L76,95v29.1h33.2V93.8v-4.2V79.3C109.1,73,104.1,68,97.9,68z"/>
		<g class="st2">
			<path d="M106.9,114.4c-0.3-2.1-0.5-4.1-0.6-6.2c-0.1-2.1-0.2-4.1-0.2-6.2c0-2.1,0-4.1,0.2-6.2c0.1-2.1,0.3-4.1,0.6-6.2
				c0.3,2.1,0.5,4.1,0.6,6.2c0.1,2.1,0.2,4.1,0.2,6.2c0,2.1,0,4.1-0.2,6.2C107.4,110.2,107.2,112.3,106.9,114.4z"/>
		</g>
		<path class="st1" d="M113,97.1h-1.6V77.5h1.6c1.6,0,3,1.3,3,3v13.6C115.9,95.8,114.6,97.1,113,97.1z"/>
		<path class="st4" d="M113.5,77.5h-1.1c1.3,0,2.4,0.9,2.4,2V95c0,1.1-1.1,2-2.4,2h1.1c1.3,0,2.4-0.9,2.4-2V79.6
			C115.9,78.5,114.9,77.5,113.5,77.5z"/>
		<path class="st5" d="M93,66h-3c-0.3,0-0.6-0.2-0.6-0.6v-5.1c0-0.3,0.2-0.6,0.6-0.6h3c0.3,0,0.6,0.2,0.6,0.6v5.1
			C93.6,65.7,93.3,66,93,66z"/>
		<path class="st6" d="M93,66h-3c-0.3,0-0.6-0.2-0.6-0.6v-5.1c0-0.3,0.2-0.6,0.6-0.6h3c0.3,0,0.6,0.2,0.6,0.6v5.1
			C93.6,65.7,93.3,66,93,66z"/>
		<path class="st4" d="M93.1,59.8h-1.3c0.3,0,0.5,0.1,0.5,0.2v5.8c0,0.1-0.2,0.2-0.5,0.2h1.3c0.3,0,0.5-0.1,0.5-0.2V60
			C93.6,59.9,93.4,59.8,93.1,59.8z"/>
		<circle class="st7" cx="92.1" cy="100.2" r="7.3"/>
		<path class="st4" d="M93.7,92.9c-0.5-0.1-1.1-0.2-1.6-0.2c3,1.4,4.8,4.8,4,8.2c-0.8,3.4-3.8,5.7-7.1,5.7c0.5,0.2,1,0.4,1.5,0.5
			c3.9,0.9,7.8-1.6,8.7-5.5S97.7,93.8,93.7,92.9z"/>
		<path class="st6" d="M113,97.1h-1.6V77.5h1.6c1.6,0,3,1.3,3,3v13.6C115.9,95.8,114.6,97.1,113,97.1z"/>
		<circle class="st8" cx="92.1" cy="100.2" r="7.3"/>
		<g>
			<path d="M91,96.2c0.9-0.3,1.8-0.3,2.7,0c0.9,0.3,1.7,1,2.1,1.8c1,1.6,0.7,4-0.8,5.3c-1.4,1.4-3.8,1.6-5.4,0.4
				c-0.8-0.5-1.4-1.3-1.7-2.2c-0.3-0.9-0.2-1.9,0.1-2.7c-0.5,1.8,0.3,3.7,1.8,4.6c0.7,0.4,1.6,0.7,2.5,0.6c0.8-0.1,1.7-0.5,2.3-1.1
				c1.3-1.1,1.6-3.2,0.8-4.7C94.7,96.8,92.8,95.8,91,96.2z"/>
		</g>
		<g class="st9">
			<path class="st10" d="M106.6,115.7"/>
		</g>
		<g class="st9">
			<path class="st10" d="M106.6,92.9"/>
		</g>
		<g class="st11">
			<path class="st12" d="M86.7,100.9c-0.4-1.2-0.3-2.7,0.4-3.9c0.3-0.6,0.7-1.3,1.3-1.7c0.6-0.4,1.4-0.5,2.1-0.3l0,0.1
				c-0.5,0.6-0.9,1-1.2,1.4c-0.4,0.4-0.8,0.7-1.2,1.1c-0.7,0.9-1.2,2-1.2,3.3L86.7,100.9z"/>
		</g>
		<g class="st2">
			<path d="M97.6,99.2c0.4,0.6,0.5,1.4,0.4,2.1c-0.1,0.7-0.3,1.5-0.7,2.1c-0.4,0.6-0.9,1.2-1.6,1.5c-0.6,0.4-1.4,0.6-2.1,0.5
				c1.2-0.8,2.1-1.6,2.7-2.6C97.1,101.8,97.4,100.6,97.6,99.2z"/>
		</g>
		<g class="st13">
			<path class="st12" d="M31,92.9c-0.2-2.6-0.3-5.1-0.5-7.7c0-1.3-0.2-2.5-0.1-3.9c0.1-1.4,0.4-2.7,0.9-4c0.5-1.3,1.3-2.5,2.2-3.5
				c0.9-1.1,2.1-1.9,3.4-2.5c1.3-0.5,2.7-0.9,4.1-0.9c1.4,0,2.6,0.3,3.9,0.6v0.2c-1.3,0.3-2.6,0.5-3.7,0.8c-1.2,0.3-2.3,0.7-3.3,1.3
				c-2,1.1-3.9,2.6-4.9,4.8c-0.5,1-0.9,2.2-1.1,3.4c-0.1,1.2-0.2,2.5-0.2,3.8c-0.2,2.6-0.3,5.1-0.5,7.7L31,92.9L31,92.9z"/>
		</g>
		<g class="st14">
			<path d="M106.6,125.7c0.4,0.5,0.5,1,0.7,1.5c0.1,0.3,0.1,0.5,0.1,0.8c0,0.4-0.1,0.8-0.3,1c-0.2,0.3-0.4,0.6-0.8,0.7
				c-0.2,0.1-0.4,0.1-0.6,0.1c-0.2,0-0.3-0.1-0.5-0.1c-0.5-0.1-1-0.2-1.5-0.4c0.5-0.2,1-0.3,1.5-0.4c0.3,0,0.3-0.1,0.4-0.3
				c0.1-0.1,0.1-0.3,0.2-0.4c0.1-0.2,0.1-0.3,0.1-0.4c0-0.3,0-0.5,0.1-0.8C106.1,126.7,106.2,126.2,106.6,125.7z"/>
		</g>
		<g>
			<path class="st15" d="M40.7,134.4c-0.2-0.1-0.4-0.3-0.7-0.4l0.1-0.1c0.2,0.1,0.4,0.3,0.7,0.4L40.7,134.4 M39.4,133.6
				c-0.2-0.1-0.4-0.2-0.7-0.4l0.1-0.1c0.2,0.1,0.5,0.3,0.7,0.4L39.4,133.6 M38,132.8c-0.2-0.1-0.4-0.2-0.7-0.4l0.1-0.1
				c0.2,0.1,0.5,0.2,0.7,0.4L38,132.8 M36.7,132.1c-0.2-0.1-0.5-0.2-0.7-0.3l0.1-0.1c0.2,0.1,0.5,0.2,0.7,0.3L36.7,132.1
				 M35.3,131.4c-0.2-0.1-0.5-0.2-0.7-0.3l0.1-0.1c0.2,0.1,0.5,0.2,0.7,0.3L35.3,131.4 M33.9,130.8c-0.2-0.1-0.5-0.2-0.7-0.3
				l0.1-0.2c0.2,0.1,0.5,0.2,0.7,0.3L33.9,130.8 M32.4,130.2c-0.2-0.1-0.5-0.2-0.7-0.3l0.1-0.2c0.2,0.1,0.5,0.2,0.7,0.3L32.4,130.2
				 M31,129.6c-0.2-0.1-0.5-0.2-0.7-0.3l0.1-0.2c0.2,0.1,0.5,0.2,0.7,0.3v0L31,129.6 M29.5,129.1c-0.2-0.1-0.5-0.2-0.8-0.2l0.1-0.2
				c0.3,0.1,0.5,0.2,0.8,0.2L29.5,129.1 M28,128.6c-0.3-0.1-0.5-0.1-0.8-0.2l0.1-0.2c0.3,0.1,0.5,0.1,0.8,0.2h0L28,128.6
				 M26.4,128.2c-0.3-0.1-0.5-0.1-0.8-0.2l0.1-0.2c0.3,0.1,0.5,0.1,0.8,0.2L26.4,128.2 M24.9,127.8c-0.3-0.1-0.5-0.1-0.8-0.2l0-0.2
				c0.3,0,0.5,0.1,0.8,0.2L24.9,127.8 M23.3,127.6c-0.3,0-0.5-0.1-0.8-0.1l0-0.2c0.3,0,0.5,0.1,0.8,0.1l0,0v0c0,0,0,0,0,0
				L23.3,127.6 M21.7,127.4c-0.3,0-0.5,0-0.8-0.1l0-0.2c0.3,0,0.5,0,0.8,0.1L21.7,127.4 M17.6,127.3l0-0.2c0.3,0,0.5,0,0.8,0l0,0.2
				C18.2,127.3,17.9,127.3,17.6,127.3 M20.1,127.3c-0.3,0-0.5,0-0.8,0l0-0.2c0.3,0,0.5,0,0.8,0L20.1,127.3 M16.2,127.4l0.3-0.4
				l0.2,0.1l-0.1,0.1c0.1,0,0.1,0,0.2,0l0,0.2c-0.1,0-0.3,0-0.4,0L16.2,127.4 M17.2,126.5l-0.2-0.1l0.5-0.6l0.2,0.1L17.2,126.5
				 M18.1,125.3l-0.2-0.1l0.5-0.6l0.2,0.1L18.1,125.3 M20.5,125.3c1.8-0.8,3.8-1.3,5.8-1.5c0.4,0,0.9-0.1,1.3-0.1
				c1.6,0,3.2,0.2,4.7,0.6c1.9,0.5,3.7,1.3,5.3,2.4c1.6,1,2.9,2.3,4.1,3.6c-1.3-1.3-2.7-2.5-4.3-3.4c-0.8-0.5-1.6-0.9-2.5-1.3
				c-0.9-0.4-1.8-0.7-2.7-1c-1.5-0.4-3.2-0.6-4.8-0.6c-0.4,0-0.7,0-1.1,0c-1,0.1-2,0.2-3,0.4C22.4,124.6,21.5,124.9,20.5,125.3
				 M19,124.2l-0.2-0.1l0.5-0.6l0.2,0.1L19,124.2 M19.9,123l-0.2-0.1l0.5-0.6l0.2,0.1L19.9,123 M23.1,123.3c1.8-0.8,3.8-1.3,5.9-1.5
				c0.4,0,0.9-0.1,1.3-0.1c1.6,0,3.2,0.2,4.7,0.6c1.9,0.5,3.7,1.3,5.3,2.4c1.6,1,3,2.3,4.2,3.6c-1.3-1.3-2.7-2.5-4.3-3.5
				c-0.8-0.5-1.6-0.9-2.5-1.3c-0.9-0.4-1.8-0.7-2.8-1c-1.6-0.4-3.2-0.6-4.9-0.6c-0.4,0-0.7,0-1.1,0c-1,0.1-2,0.2-3,0.4
				C25,122.6,24,122.9,23.1,123.3 M20.8,121.9l-0.2-0.1l0.2-0.2c0.1-0.1,0.2-0.2,0.3-0.3l0.2,0.1c-0.1,0.1-0.2,0.2-0.3,0.3
				L20.8,121.9 M21.8,120.8l-0.1-0.1c0.2-0.2,0.4-0.3,0.6-0.5l0.1,0.1C22.2,120.5,22,120.6,21.8,120.8 M24.6,121.5
				c1.9-0.8,4.1-1.3,6.2-1.4c0.5,0,0.9-0.1,1.4-0.1c1.7,0,3.4,0.2,5,0.6c2,0.5,4,1.3,5.7,2.4c1.7,1,3.2,2.3,4.5,3.7
				c-1.4-1.3-2.9-2.5-4.7-3.5c-1.7-1-3.6-1.8-5.6-2.3c-1.7-0.4-3.4-0.6-5.1-0.6c-0.4,0-0.7,0-1.1,0c-1.1,0.1-2.1,0.2-3.2,0.4
				C26.6,120.8,25.6,121.1,24.6,121.5 M18.9,125.8L18.9,125.8c0.3-0.7,0.8-1.3,1.2-1.9c0.5-0.6,1-1.2,1.5-1.8
				c0.5-0.6,1.1-1.2,1.8-1.6c0.4-0.2,0.8-0.4,1.2-0.6c0.2-0.1,0.5-0.1,0.7-0.1c0.2,0,0.5,0,0.7,0.1l0,0.1c-0.4,0-0.8,0.2-1.1,0.4
				c-0.3,0.2-0.6,0.4-1,0.6l-0.9,0.7c-0.3,0.2-0.6,0.5-0.9,0.8c-0.6,0.5-1.1,1.1-1.7,1.7C19.9,124.6,19.4,125.2,18.9,125.8
				 M23.1,119.9l-0.1-0.1c0.2-0.1,0.5-0.2,0.7-0.3l0.1,0.2C23.5,119.7,23.3,119.8,23.1,119.9 M24.5,119.4l-0.1-0.2
				c0.2-0.1,0.5-0.1,0.8-0.2l0.1,0.2C25,119.2,24.8,119.3,24.5,119.4 M26.1,119l-0.1-0.2c0.3-0.1,0.5-0.1,0.8-0.2l0,0.2
				C26.6,118.8,26.4,118.9,26.1,119 M27.7,118.6l0-0.2c0.3-0.1,0.5-0.1,0.8-0.2l0,0.2C28.2,118.5,27.9,118.5,27.7,118.6 M29.3,118.3
				l0-0.2c0.3,0,0.5-0.1,0.8-0.1l0,0.2C29.8,118.2,29.5,118.2,29.3,118.3 M39.8,118.1c-0.3,0-0.5-0.1-0.8-0.1l0-0.2
				c0.3,0,0.5,0.1,0.8,0.1L39.8,118.1 M30.9,118l0-0.2c0.3,0,0.5-0.1,0.8-0.1l0,0.2C31.4,118,31.2,118,30.9,118 M38.2,117.9
				c-0.3,0-0.5,0-0.8-0.1l0-0.2c0.3,0,0.5,0,0.8,0.1L38.2,117.9 M32.5,117.9l0-0.2c0.3,0,0.5,0,0.8-0.1l0,0.2
				C33.1,117.8,32.8,117.8,32.5,117.9 M36.6,117.8c-0.3,0-0.5,0-0.8,0l0-0.2c0.3,0,0.5,0,0.8,0L36.6,117.8 M34.1,117.8l0-0.2
				c0.3,0,0.5,0,0.8,0l0,0.2C34.7,117.7,34.4,117.8,34.1,117.8 M35.3,116.7c-4.8,0-9.1,1.1-11.7,1.9c-1.4,0.5-2.7,1.3-3.6,2.5
				l-4.6,5.9c-0.2,0.3-0.2,0.7,0,1c0,0.1,0.1,0.1,0.2,0.2c0.4,0,0.8,0.1,1.2,0.1c0.8-0.1,1.6-0.1,2.5-0.1c8.4,0,17,4.5,21.6,7.4
				l0.8-0.6c-0.1,0-0.1-0.1-0.2-0.1l0.1-0.1c0.1,0,0.1,0.1,0.2,0.1l8.9-6.7c0.8-0.6,1-1.6,0.4-2.4c-2.9-3.6-6.2-6-9.6-7.4l0,0.1
				c-0.3-0.1-0.5-0.1-0.8-0.2l0-0.2c0.1,0,0.2,0,0.3,0c-1.5-0.6-3.1-1.1-4.6-1.4C36,116.7,35.7,116.7,35.3,116.7"/>
			<path class="st16" d="M15.5,128.1c0.2,0.1,0.3,0.2,0.5,0.2c0,0,0.1,0,0.1,0c0.2,0,0.3,0,0.5-0.1
				C16.2,128.2,15.8,128.2,15.5,128.1"/>
			<path class="st16" d="M43.4,135.9c-0.2,0-0.3,0-0.4-0.1c-0.1-0.1-0.2-0.1-0.3-0.2l0.1-0.1c0.1,0.1,0.2,0.1,0.3,0.2
				c0.1,0.1,0.2,0.1,0.3,0.1h0L43.4,135.9L43.4,135.9 M44.1,135.5l-0.1-0.1l0.6-0.5l0.1,0.1L44.1,135.5 M45.4,134.6l-0.1-0.1
				l0.6-0.5l0.1,0.1L45.4,134.6 M46.6,133.7l-0.1-0.1l0.6-0.5l0.1,0.1L46.6,133.7 M47.9,132.8l-0.1-0.1l0.6-0.5l0.1,0.1L47.9,132.8
				 M49.1,131.8l-0.1-0.1l0.6-0.5l0.1,0.1L49.1,131.8 M50.3,130.9l-0.1-0.1l0.6-0.5l0.1,0.1L50.3,130.9 M51.6,130l-0.1-0.1l0.6-0.5
				l0.1,0.1L51.6,130 M52.8,129.1l-0.1-0.1l0.6-0.5l0.1,0.1L52.8,129.1 M54,128.2l-0.1-0.1l0.6-0.5l0.1,0.1L54,128.2 M55.1,127.1
				l-0.2,0l0,0c0-0.1,0-0.2-0.1-0.3c-0.1-0.1-0.1-0.1-0.2-0.2l0.2-0.1c0.1,0.1,0.1,0.1,0.2,0.2C55.1,126.7,55.1,126.9,55.1,127.1
				L55.1,127.1 M54.2,126c-0.2-0.2-0.3-0.4-0.5-0.5l0.2-0.1c0.2,0.2,0.3,0.4,0.5,0.5L54.2,126 M53.2,124.9c-0.2-0.2-0.3-0.3-0.5-0.5
				l0.2-0.1c0.2,0.2,0.3,0.3,0.5,0.5L53.2,124.9 M52.2,123.9c-0.2-0.2-0.4-0.3-0.5-0.5l0.1-0.1c0.2,0.2,0.4,0.3,0.5,0.5L52.2,123.9
				 M51.1,122.9c-0.2-0.2-0.4-0.3-0.6-0.5l0.1-0.1c0.2,0.2,0.4,0.3,0.6,0.5L51.1,122.9 M49.9,122c-0.2-0.1-0.4-0.3-0.6-0.4l0.1-0.1
				c0.2,0.1,0.4,0.3,0.6,0.4L49.9,122 M48.6,121.2c-0.2-0.1-0.4-0.3-0.7-0.4l0.1-0.1c0.2,0.1,0.4,0.3,0.7,0.4L48.6,121.2
				 M47.3,120.4c-0.2-0.1-0.5-0.2-0.7-0.3l0.1-0.2c0.2,0.1,0.5,0.2,0.7,0.3L47.3,120.4 M45.9,119.8c-0.2-0.1-0.5-0.2-0.7-0.3
				l0.1-0.2c0.2,0.1,0.5,0.2,0.7,0.3L45.9,119.8 M44.5,119.2c-0.2-0.1-0.5-0.2-0.8-0.2l0.1-0.2c0.3,0.1,0.5,0.2,0.8,0.3L44.5,119.2
				 M42.9,118.7c-0.3-0.1-0.5-0.1-0.8-0.2l0.1-0.2c0.3,0.1,0.5,0.1,0.8,0.2L42.9,118.7 M36.3,116.7c1.5,0.3,3.1,0.7,4.6,1.4
				c0.2,0,0.4,0.1,0.5,0.1l0,0.1c3.4,1.5,6.7,3.8,9.6,7.4c0.6,0.7,0.4,1.8-0.4,2.4l-8.9,6.7c0.2,0.1,0.3,0.2,0.4,0.3l0,0v0
				c0,0,0,0,0,0l-0.1,0.1c-0.2-0.1-0.3-0.2-0.5-0.3l-0.8,0.6c0.6,0.4,1.1,0.7,1.5,1c0.3,0.2,0.7,0.3,1.1,0.3c0.4,0,0.9-0.1,1.2-0.4
				l2.6-2c0,0,0,0,0,0l0.3-0.2c0,0,0,0,0,0l8-6c0.7-0.5,0.8-1.4,0.3-2C50.3,119,42.9,116.9,36.3,116.7"/>
			<path d="M10.3,118.9c-4.2,0.1-7.4,5.1-8.6,7.2c-0.5,0.9-0.6,2-0.2,2.8c0.4,0.8,1,1.3,1.9,1.5c0.3,0.1,0.6,0.1,1,0.1
				c3.4,0,8.7-3,10.8-4.4l0.7-0.9c-0.4,0.3-7.4,4.9-11.5,4.9c-0.3,0-0.6,0-0.9-0.1c-0.8-0.2-1.3-0.6-1.6-1.3
				c-0.3-0.7-0.3-1.7,0.2-2.5c1.1-2.1,4.2-7,8.2-7l10.6,0.1c0.2-0.1,0.3-0.2,0.5-0.3L10.3,118.9"/>
			<path d="M47.5,134.1l-0.3,0.2c0,0,0,0,0,0L47.5,134.1C47.5,134.1,47.5,134.1,47.5,134.1 M54.9,129.4l-0.4,0.3
				c0.4,0,9.8,0.6,14,3.8c2.3,1.8,2.3,5.5-0.1,7.9c-1.3,1.3-2.8,2-4.7,2c-0.1,0-0.1,0-0.2,0c-4.1,0-9.3-3-15.6-9l-0.3,0.2
				c6.3,6.1,11.7,9.1,15.9,9.1c0.1,0,0.1,0,0.2,0c2-0.1,3.7-0.8,5-2.2c2.5-2.6,2.5-6.5,0-8.4C64.8,130.3,56.8,129.6,54.9,129.4"/>
			<path d="M15.5,128.1c-0.1,0-0.1-0.1-0.2-0.2c-0.2-0.3-0.2-0.7,0-1l4.6-5.9c0.9-1.2,2.2-2,3.6-2.5c2.6-0.8,6.9-1.9,11.7-1.9
				c0.3,0,0.7,0,1,0c6.5,0.2,13.9,2.3,19.5,9.4c0.5,0.6,0.4,1.5-0.3,2l-8,6l-0.3,0.2l-2.6,2c-0.4,0.3-0.8,0.4-1.2,0.4
				c-0.4,0-0.8-0.1-1.1-0.3c-0.4-0.3-1-0.6-1.5-1c-4.6-2.9-13.2-7.4-21.6-7.4c-0.8,0-1.6,0-2.5,0.1c-0.2,0-0.3,0-0.5,0.1
				c0,0-0.1,0-0.1,0C15.8,128.3,15.6,128.3,15.5,128.1 M35.4,116.1c-4.9,0-9.3,1.1-12,1.9c-0.7,0.2-1.4,0.5-2,0.9
				c-0.2,0.1-0.3,0.2-0.5,0.3c-0.6,0.4-1.1,0.9-1.5,1.5l-3.5,4.5l-0.7,0.9l-0.5,0.6c-0.4,0.5-0.4,1.1,0,1.6c0.3,0.4,0.8,0.6,1.3,0.6
				c0.1,0,0.2,0,0.3,0c0.9-0.1,1.8-0.2,2.8-0.2c9.6,0,19.7,6.2,22.8,8.2c0.4,0.3,1,0.4,1.5,0.4c0.6,0,1.2-0.2,1.7-0.6l2.6-2l0.3-0.2
				l6.5-4.8l0.4-0.3l1.1-0.8c0.9-0.7,1.1-1.9,0.5-2.8C50.4,118.1,42.3,116.1,35.4,116.1"/>
			<path class="st12" d="M16.5,127l-0.3,0.4l0.2,0c0.1,0,0.3,0,0.4,0l0-0.2c-0.1,0-0.1,0-0.2,0l0.1-0.1L16.5,127"/>
			<path class="st12" d="M42.8,135.4l-0.1,0.1c0.1,0.1,0.2,0.1,0.3,0.2c0.1,0.1,0.3,0.1,0.4,0.1h0l0-0.2h0c-0.1,0-0.2,0-0.3-0.1
				C43,135.6,42.9,135.5,42.8,135.4 M42.1,135L42.1,135C42.1,135,42.1,135,42.1,135L42.1,135 M44.6,135l-0.6,0.5l0.1,0.1l0.6-0.5
				L44.6,135 M41.5,134.6l-0.1,0.1c0.1,0,0.1,0.1,0.2,0.1c0.2,0.1,0.3,0.2,0.5,0.3l0.1-0.1c-0.1-0.1-0.3-0.2-0.4-0.3
				C41.6,134.7,41.5,134.7,41.5,134.6 M45.9,134l-0.6,0.5l0.1,0.1l0.6-0.5L45.9,134 M40.2,133.8L40,134c0.2,0.1,0.4,0.3,0.7,0.4
				l0.1-0.1C40.6,134.1,40.4,134,40.2,133.8 M47.1,133.1l-0.6,0.5l0.1,0.1l0.6-0.5L47.1,133.1 M38.8,133.1l-0.1,0.1
				c0.2,0.1,0.5,0.3,0.7,0.4l0.1-0.1C39.3,133.3,39.1,133.2,38.8,133.1 M37.5,132.3l-0.1,0.1c0.2,0.1,0.5,0.2,0.7,0.4l0.1-0.1
				C37.9,132.6,37.7,132.5,37.5,132.3 M48.3,132.2l-0.6,0.5l0.1,0.1l0.6-0.5L48.3,132.2 M36.1,131.6l-0.1,0.1
				c0.2,0.1,0.5,0.2,0.7,0.3l0.1-0.1C36.6,131.9,36.3,131.8,36.1,131.6 M49.6,131.3l-0.6,0.5l0.1,0.1l0.6-0.5L49.6,131.3 M34.7,131
				l-0.1,0.1c0.2,0.1,0.5,0.2,0.7,0.3l0.1-0.1C35.2,131.2,34.9,131.1,34.7,131 M50.8,130.3l-0.6,0.5l0.1,0.1l0.6-0.5L50.8,130.3
				 M33.3,130.3l-0.1,0.2c0.2,0.1,0.5,0.2,0.7,0.3l0.1-0.2C33.7,130.5,33.5,130.4,33.3,130.3 M31.8,129.7l-0.1,0.2
				c0.2,0.1,0.5,0.2,0.7,0.3l0.1-0.2C32.3,129.9,32,129.8,31.8,129.7 M52,129.4l-0.6,0.5l0.1,0.1l0.6-0.5L52,129.4 M30.3,129.2
				l-0.1,0.2c0.2,0.1,0.5,0.2,0.7,0.3l0.1-0.2v0C30.8,129.4,30.6,129.3,30.3,129.2 M28.8,128.7l-0.1,0.2c0.3,0.1,0.5,0.2,0.8,0.2
				l0.1-0.2C29.3,128.8,29.1,128.8,28.8,128.7 M53.3,128.5l-0.6,0.5l0.1,0.1l0.6-0.5L53.3,128.5 M27.3,128.2l-0.1,0.2
				c0.3,0.1,0.5,0.1,0.8,0.2l0.1-0.2h0C27.8,128.4,27.5,128.3,27.3,128.2 M25.7,127.8l-0.1,0.2c0.3,0.1,0.5,0.1,0.8,0.2l0.1-0.2
				C26.2,128,26,127.9,25.7,127.8 M54.5,127.6l-0.6,0.5l0.1,0.1l0.6-0.5L54.5,127.6 M24.1,127.5l0,0.2c0.3,0,0.5,0.1,0.8,0.2
				l0.1-0.2C24.7,127.6,24.4,127.6,24.1,127.5 M23.3,127.4L23.3,127.4C23.3,127.4,23.3,127.4,23.3,127.4L23.3,127.4 M22.5,127.3
				l0,0.2c0.3,0,0.5,0.1,0.8,0.1l0-0.2C23.1,127.3,22.8,127.3,22.5,127.3 M20.9,127.1l0,0.2c0.3,0,0.5,0,0.8,0.1l0-0.2
				C21.4,127.2,21.2,127.1,20.9,127.1 M18.4,127.1c-0.3,0-0.5,0-0.8,0l0,0.2c0.3,0,0.5,0,0.8,0L18.4,127.1 M19.3,127.1l0,0.2
				c0.3,0,0.5,0,0.8,0l0-0.2C19.8,127.1,19.5,127.1,19.3,127.1 M54.8,126.4l-0.2,0.1c0.1,0.1,0.1,0.1,0.2,0.2
				c0.1,0.1,0.1,0.2,0.1,0.3l0,0l0.2,0l0-0.1c0-0.1,0-0.3-0.1-0.4C54.9,126.6,54.9,126.5,54.8,126.4 M17.4,125.8l-0.5,0.6l0.2,0.1
				l0.5-0.6L17.4,125.8 M53.9,125.3l-0.2,0.1c0.2,0.2,0.3,0.4,0.5,0.5l0.2-0.1C54.2,125.7,54,125.5,53.9,125.3 M18.4,124.7l-0.5,0.6
				l0.2,0.1l0.5-0.6L18.4,124.7 M52.9,124.3l-0.2,0.1c0.2,0.2,0.3,0.3,0.5,0.5l0.2-0.1C53.2,124.6,53,124.4,52.9,124.3 M19.3,123.5
				l-0.5,0.6l0.2,0.1l0.5-0.6L19.3,123.5 M51.8,123.3l-0.1,0.1c0.2,0.2,0.4,0.3,0.5,0.5l0.2-0.1C52.2,123.6,52,123.4,51.8,123.3
				 M50.6,122.3l-0.1,0.1c0.2,0.1,0.4,0.3,0.6,0.5l0.1-0.1C51,122.6,50.8,122.5,50.6,122.3 M20.2,122.4l-0.5,0.6l0.2,0.1l0.5-0.6
				L20.2,122.4 M49.4,121.4l-0.1,0.1c0.2,0.1,0.4,0.3,0.6,0.4l0.1-0.1C49.8,121.7,49.6,121.6,49.4,121.4 M21.1,121.2
				c-0.1,0.1-0.2,0.2-0.3,0.3l-0.2,0.2l0.2,0.1l0.2-0.2c0.1-0.1,0.2-0.2,0.3-0.3L21.1,121.2 M48.1,120.6l-0.1,0.1
				c0.2,0.1,0.4,0.2,0.7,0.4l0.1-0.1C48.5,120.9,48.3,120.8,48.1,120.6 M22.3,120.2c-0.2,0.1-0.4,0.3-0.6,0.5l0.1,0.1
				c0.2-0.2,0.4-0.3,0.6-0.5L22.3,120.2 M46.7,119.9l-0.1,0.2c0.2,0.1,0.5,0.2,0.7,0.3l0.1-0.1C47.2,120.2,46.9,120,46.7,119.9
				 M23.7,119.5c-0.3,0.1-0.5,0.2-0.7,0.3l0.1,0.1c0.2-0.1,0.5-0.2,0.7-0.3L23.7,119.5 M45.3,119.3l-0.1,0.2
				c0.2,0.1,0.5,0.2,0.7,0.3l0.1-0.2C45.8,119.5,45.5,119.4,45.3,119.3 M25.3,119c-0.3,0.1-0.5,0.1-0.8,0.2l0.1,0.2
				c0.2-0.1,0.5-0.1,0.8-0.2L25.3,119 M43.8,118.8l-0.1,0.2c0.3,0.1,0.5,0.2,0.8,0.2l0.1-0.2C44.3,118.9,44,118.9,43.8,118.8
				 M26.8,118.6c-0.3,0.1-0.5,0.1-0.8,0.2l0.1,0.2c0.3-0.1,0.5-0.1,0.8-0.2L26.8,118.6 M42.2,118.4l-0.1,0.2
				c0.3,0.1,0.5,0.1,0.8,0.2l0.1-0.2C42.8,118.5,42.5,118.4,42.2,118.4 M28.4,118.3c-0.3,0.1-0.5,0.1-0.8,0.2l0,0.2
				c0.3-0.1,0.5-0.1,0.8-0.2L28.4,118.3 M40.7,118l0,0.2c0.3,0,0.5,0.1,0.8,0.2l0-0.1l0-0.1c-0.2,0-0.4-0.1-0.5-0.1
				C40.8,118,40.7,118,40.7,118 M30.1,118c-0.3,0-0.5,0.1-0.8,0.1l0,0.2c0.3,0,0.5-0.1,0.8-0.1L30.1,118 M39,117.8l0,0.2
				c0.3,0,0.5,0.1,0.8,0.1l0-0.2C39.6,117.8,39.3,117.8,39,117.8 M31.7,117.8c-0.3,0-0.5,0.1-0.8,0.1l0,0.2c0.3,0,0.5-0.1,0.8-0.1
				L31.7,117.8 M37.4,117.6l0,0.2c0.3,0,0.5,0,0.8,0.1l0-0.2C38,117.7,37.7,117.6,37.4,117.6 M33.3,117.6c-0.3,0-0.5,0-0.8,0.1
				l0,0.2c0.3,0,0.5,0,0.8-0.1L33.3,117.6 M35.8,117.6l0,0.2c0.3,0,0.5,0,0.8,0l0-0.2C36.3,117.6,36.1,117.6,35.8,117.6 M35,117.6
				c-0.3,0-0.5,0-0.8,0l0,0.2c0.3,0,0.5,0,0.8,0L35,117.6"/>
			<path class="st17" d="M25.4,119.7c-0.2,0-0.5,0-0.7,0.1c-0.5,0.1-0.9,0.3-1.2,0.6c-0.8,0.4-1.3,1.1-1.8,1.6
				c-0.5,0.6-1,1.2-1.5,1.8c-0.5,0.6-0.9,1.2-1.3,1.9l0.1,0c0.5-0.6,1-1.2,1.6-1.7c0.5-0.6,1.1-1.1,1.7-1.7c0.3-0.3,0.6-0.5,0.9-0.8
				l0.9-0.7c0.3-0.2,0.6-0.5,1-0.6c0.3-0.2,0.7-0.3,1.1-0.4l0-0.1C25.9,119.8,25.7,119.7,25.4,119.7"/>
			<path class="st18" d="M32.2,120c-0.5,0-0.9,0-1.4,0.1c-2.1,0.2-4.3,0.6-6.2,1.4c1-0.4,2-0.6,3-0.9c1-0.2,2.1-0.3,3.2-0.4
				c0.4,0,0.7,0,1.1,0c1.7,0,3.5,0.2,5.1,0.6c2,0.5,3.9,1.3,5.6,2.3c1.7,1,3.3,2.2,4.7,3.5c-1.3-1.4-2.8-2.6-4.5-3.7
				c-1.7-1.1-3.6-1.9-5.7-2.4C35.5,120.2,33.9,120,32.2,120"/>
			<path class="st18" d="M30.3,121.7c-0.4,0-0.9,0-1.3,0.1c-2,0.2-4.1,0.6-5.9,1.5c0.9-0.4,1.9-0.7,2.9-0.9c1-0.2,2-0.3,3-0.4
				c0.4,0,0.7,0,1.1,0c1.7,0,3.3,0.2,4.9,0.6c0.9,0.3,1.9,0.6,2.8,1c0.9,0.4,1.7,0.8,2.5,1.3c1.6,1,3,2.2,4.3,3.5
				c-1.2-1.3-2.6-2.6-4.2-3.6c-1.6-1-3.4-1.9-5.3-2.4C33.5,121.9,31.9,121.7,30.3,121.7"/>
			<path class="st18" d="M27.7,123.8c-0.4,0-0.9,0-1.3,0.1c-2,0.2-4,0.6-5.8,1.5c0.9-0.4,1.9-0.7,2.9-0.9c1-0.2,2-0.3,3-0.4
				c0.4,0,0.7,0,1.1,0c1.6,0,3.3,0.2,4.8,0.6c0.9,0.3,1.9,0.6,2.7,1c0.9,0.4,1.7,0.8,2.5,1.3c1.6,1,3,2.2,4.3,3.4
				c-1.2-1.3-2.6-2.6-4.1-3.6c-1.6-1-3.3-1.9-5.3-2.4C30.9,124,29.3,123.8,27.7,123.8"/>
			<path class="st18" d="M32.2,120c-0.5,0-0.9,0-1.4,0.1c-2.1,0.2-4.3,0.6-6.2,1.4c1-0.4,2-0.6,3-0.9c1-0.2,2.1-0.3,3.2-0.4
				c0.4,0,0.7,0,1.1,0c1.7,0,3.5,0.2,5.1,0.6c2,0.5,3.9,1.3,5.6,2.3c1.7,1,3.3,2.2,4.7,3.5c-1.3-1.4-2.8-2.6-4.5-3.7
				c-1.7-1.1-3.6-1.9-5.7-2.4C35.5,120.2,33.9,120,32.2,120"/>
			<path class="st18" d="M30.3,121.7c-0.4,0-0.9,0-1.3,0.1c-2,0.2-4.1,0.6-5.9,1.5c0.9-0.4,1.9-0.7,2.9-0.9c1-0.2,2-0.3,3-0.4
				c0.4,0,0.7,0,1.1,0c1.7,0,3.3,0.2,4.9,0.6c0.9,0.3,1.9,0.6,2.8,1c0.9,0.4,1.7,0.8,2.5,1.3c1.6,1,3,2.2,4.3,3.5
				c-1.2-1.3-2.6-2.6-4.2-3.6c-1.6-1-3.4-1.9-5.3-2.4C33.5,121.9,31.9,121.7,30.3,121.7"/>
			<path class="st18" d="M27.7,123.8c-0.4,0-0.9,0-1.3,0.1c-2,0.2-4,0.6-5.8,1.5c0.9-0.4,1.9-0.7,2.9-0.9c1-0.2,2-0.3,3-0.4
				c0.4,0,0.7,0,1.1,0c1.6,0,3.3,0.2,4.8,0.6c0.9,0.3,1.9,0.6,2.7,1c0.9,0.4,1.7,0.8,2.5,1.3c1.6,1,3,2.2,4.3,3.4
				c-1.2-1.3-2.6-2.6-4.1-3.6c-1.6-1-3.3-1.9-5.3-2.4C30.9,124,29.3,123.8,27.7,123.8"/>
			<path class="st19" d="M32.2,120c-0.5,0-0.9,0-1.4,0.1c-2.1,0.2-4.3,0.6-6.2,1.4c1-0.4,2-0.6,3-0.9c1-0.2,2.1-0.3,3.2-0.4
				c0.4,0,0.7,0,1.1,0c1.7,0,3.5,0.2,5.1,0.6c2,0.5,3.9,1.3,5.6,2.3c1.7,1,3.3,2.2,4.7,3.5c-1.3-1.4-2.8-2.6-4.5-3.7
				c-1.7-1.1-3.6-1.9-5.7-2.4C35.5,120.2,33.9,120,32.2,120"/>
			<path class="st19" d="M30.3,121.7c-0.4,0-0.9,0-1.3,0.1c-2,0.2-4.1,0.6-5.9,1.5c0.9-0.4,1.9-0.7,2.9-0.9c1-0.2,2-0.3,3-0.4
				c0.4,0,0.7,0,1.1,0c1.7,0,3.3,0.2,4.9,0.6c0.9,0.3,1.9,0.6,2.8,1c0.9,0.4,1.7,0.8,2.5,1.3c1.6,1,3,2.2,4.3,3.5
				c-1.2-1.3-2.6-2.6-4.2-3.6c-1.6-1-3.4-1.9-5.3-2.4C33.5,121.9,31.9,121.7,30.3,121.7"/>
			<path class="st19" d="M27.7,123.8c-0.4,0-0.9,0-1.3,0.1c-2,0.2-4,0.6-5.8,1.5c0.9-0.4,1.9-0.7,2.9-0.9c1-0.2,2-0.3,3-0.4
				c0.4,0,0.7,0,1.1,0c1.6,0,3.3,0.2,4.8,0.6c0.9,0.3,1.9,0.6,2.7,1c0.9,0.4,1.7,0.8,2.5,1.3c1.6,1,3,2.2,4.3,3.4
				c-1.2-1.3-2.6-2.6-4.1-3.6c-1.6-1-3.3-1.9-5.3-2.4C30.9,124,29.3,123.8,27.7,123.8"/>
		</g>
		<g>
			<path class="st20" d="M36.9,105.9l-0.1,5.3l0,5.3c0,0.4,0,0.9,0,1.3c0,0.4-0.1,0.9-0.2,1.3c-0.2-0.4-0.2-0.9-0.2-1.3
				c0-0.4,0-0.9,0-1.3l0-5.3l-0.1-5.3H36.9z"/>
			<path class="st20" d="M36.5,117.9c0-0.4,0-0.9,0-1.3l0-5.3l-0.1-5.3h-0.1l0.1,5.3l0,5.3c0,0.4,0,0.9,0,1.3c0,0.4,0.1,0.9,0.2,1.3
				c0-0.1,0-0.2,0.1-0.2C36.5,118.6,36.5,118.2,36.5,117.9z"/>
			<path class="st21" d="M36.8,105.9l-0.1,5.3l0,5.3c0,0.4,0,0.9,0,1.3c0,0.4-0.1,0.7-0.2,1.1c0,0.1,0,0.2,0.1,0.2
				c0.2-0.4,0.2-0.9,0.2-1.3c0-0.4,0-0.9,0-1.3l0-5.3l0.1-5.3L36.8,105.9L36.8,105.9z"/>
		</g>
		<path class="st1" d="M37.5,105.9h-1.7c-0.5,0-0.9-0.3-1-0.7l-1-5h5.6l-0.8,5C38.4,105.6,38,105.9,37.5,105.9z"/>
		<path class="st22" d="M38.3,100.2l-0.8,5c-0.1,0.5-0.6,0.8-1,0.8h1.1c0.5,0,0.9-0.3,1-0.8l0.8-5H38.3z"/>
		<path class="st6" d="M37.5,105.9h-1.7c-0.5,0-0.9-0.3-1-0.7l-1-5h5.6l-0.8,5C38.4,105.6,38,105.9,37.5,105.9z"/>
	</g>
	<g>
		<path class="st23" d="M131.9,68.8h6.8l5.7,13.2l5.7-13.2h6.8v27h-6.9l0-7.8l0.4-5.4l-0.2,0l-3.5,9.3h-4.7l-3.6-9.3l-0.2,0l0.5,5.4
			v7.8h-6.8L131.9,68.8L131.9,68.8z"/>
		<path class="st23" d="M184.1,95.8h-7.3l-1.8-5.4h-7.2l-1.7,5.4h-7.3l9.4-27h6.2L184.1,95.8z M173.4,84.3l-1.9-7.9h-0.2l-2,7.9
			H173.4z"/>
		<path class="st23" d="M188.5,87.3c2.7,3.3,8.6,3.4,8.8,0.5c0.1-1.5-2.4-2.4-4.6-2.7c-4.3-0.7-8.3-3.4-8.3-8.6
			c0-5.3,4.8-8.1,9.8-8.1c3.3,0,6.4,0.9,9.2,4.3l-4.5,3.4c-2.8-3-7.7-2.9-7.8,0.2c0.1,1.3,1.5,2.1,3.6,2.5c4.8,0.9,9.6,2.6,9.3,9.2
			c-0.2,5.2-5.7,8.1-10.7,8.1c-3.2,0-6.7-1.6-9.2-4.9L188.5,87.3z"/>
		<path class="st23" d="M221.1,68.8h8.5l-10.7,13l10.6,13.9h-8.6l-6.9-9.6l-0.2,0.3v9.3h-6.9v-27h6.9v10L221.1,68.8z"/>
		<path class="st24" d="M148.7,116.4c3.7,1.9,4.2,5.3,3.8,7.4c-0.7,4.3-3.6,7-9.6,7h-11v-27h10.8c5.1,0,8.9,3.1,8.8,8.2
			C151.4,113.2,150.6,115.4,148.7,116.4z M142.7,114.3c3.3,0,3.4-4.8,0-4.8h-4v4.8H142.7z M142.7,124.7c4.1,0,4-5.5,0-5.5h-4v5.5
			H142.7z"/>
		<path class="st24" d="M178,130.7h-7.3l-1.8-5.4h-7.2l-1.7,5.4h-7.3l9.4-27h6.2L178,130.7z M167.3,119.3l-1.9-7.9h-0.2l-2,7.9
			H167.3z"/>
		<path class="st12" d="M179.8,103.8h6.5l6.5,11.5l2.3,5.4l0.2,0c0,0-0.7-4.6-0.8-4.6v-12.2h6.8v27h-6.9l-6.1-10.6l-2.4-5.4l-0.2,0
			l0.9,5.2v10.8h-6.8V103.8z"/>
		<path class="st24" d="M228.5,130.7h-7.3l-1.8-5.4h-7.2l-1.7,5.4h-7.3l9.4-27h6.2L228.5,130.7z M217.8,119.3l-1.9-7.9h-0.2l-2,7.9
			H217.8z"/>
		<path class="st24" d="M228.9,112.6c0-6.2,5.6-9.3,11.2-9.3s11.2,3.1,11.2,9.3v9.2c0,6.2-5.6,9.3-11.2,9.3s-11.2-3.1-11.2-9.3
			V112.6z M235.7,121.8c0,2,2.2,2.9,4.4,2.9c2.2,0,4.3-1,4.3-2.9v-9.2c0-2.1-2.2-3-4.5-3c-2.1,0-4.3,1.1-4.3,3V121.8z"/>
	</g>
	<path class="st25" d="M47.7,57V45.7l79.4-42.8l51.2,26.5l0,0V14.1c0-0.6,0.5-1.1,1.1-1.1h8.6c0.6,0,1.1,0.5,1.1,1.1v20.8l0,0
		l20.1,10.8V57"/>
	<polyline class="st26" points="209.1,146.7 209.1,166.5 47.7,166.5 47.7,146.7 	"/>
</g>
</svg>
