<?xml version="1.0" encoding="iso-8859-1"?>
<!-- Generator: Adobe Illustrator 22.0.0, SVG Export Plug-In . SVG Version: 6.00 Build 0)  -->
<svg version="1.1" id="Layer_1" xmlns="http://www.w3.org/2000/svg" xmlns:xlink="http://www.w3.org/1999/xlink" x="0px" y="0px"
	 viewBox="0 0 252.5 169.408" style="enable-background:new 0 0 252.5 169.408;" xml:space="preserve">
<g>
	<g>
		<path style="fill:#B3B3B3;stroke:#000000;stroke-width:0.755;stroke-miterlimit:10;" d="M29.082,131.469h75.286
			c2.636,0,4.774-2.137,4.774-4.774v-2.593H24.308v2.593C24.308,129.331,26.446,131.469,29.082,131.469z"/>
		<path style="fill:#666666;" d="M97.865,67.988H40.572c-7.386,0-13.374,5.988-13.374,13.374v8.217v4.25v2.352
			c0,2.175,1.763,3.939,3.938,3.939h12.745c2.175,0,3.938-1.763,3.938-3.939v-1.218l0.122-1.133c0.521-2.429,2.678-4.25,5.262-4.25
			h17.403c2.584,0,4.741,1.822,5.262,4.25l0.122,1.133v29.128h33.151V93.829v-4.25V79.265
			C109.142,73.037,104.093,67.988,97.865,67.988z"/>
		<g style="opacity:0.2;">
			<path d="M99.189,124.102v4.09c0,1.81-1.467,3.277-3.277,3.277h9.953c1.81,0,3.277-1.467,3.277-3.277v-4.09H99.189z"/>
			<g>
				<path d="M43.03,93.829l-0.122,1.133v1.218c0,2.175-1.763,3.939-3.939,3.939h4.911c2.175,0,3.938-1.763,3.938-3.939v-1.218
					l0.122-1.133c0.521-2.429,2.678-4.25,5.262-4.25h-4.911C45.708,89.579,43.551,91.4,43.03,93.829z"/>
				<path d="M97.864,67.988h-4.911c6.228,0,11.277,5.049,11.277,11.277v10.314v4.25v30.261h4.911V93.829v-4.25V79.265
					C109.142,73.037,104.093,67.988,97.864,67.988z"/>
			</g>
		</g>
		<path style="fill:none;stroke:#000000;stroke-width:0.755;stroke-miterlimit:10;" d="M97.865,67.988H40.572
			c-7.386,0-13.374,5.988-13.374,13.374v8.217v4.25v2.352c0,2.175,1.763,3.939,3.938,3.939h12.745c2.175,0,3.938-1.763,3.938-3.939
			v-1.218l0.122-1.133c0.521-2.429,2.678-4.25,5.262-4.25h17.403c2.584,0,4.741,1.822,5.262,4.25l0.122,1.133v29.128h33.151V93.829
			v-4.25V79.265C109.142,73.037,104.093,67.988,97.865,67.988z"/>
		<g style="opacity:0.2;">
			<path d="M106.881,114.382c-0.312-2.067-0.476-4.134-0.587-6.201c-0.12-2.067-0.153-4.134-0.168-6.201
				c0.013-2.067,0.045-4.134,0.165-6.201c0.111-2.067,0.275-4.134,0.589-6.201c0.314,2.067,0.479,4.134,0.589,6.201
				c0.12,2.067,0.152,4.134,0.165,6.201c-0.015,2.067-0.047,4.134-0.168,6.201C107.357,110.249,107.194,112.316,106.881,114.382z"/>
		</g>
		<path style="fill:#666666;" d="M112.974,97.087h-1.616V77.537h1.616c1.643,0,2.974,1.332,2.974,2.974v13.602
			C115.949,95.756,114.617,97.087,112.974,97.087z"/>
		<path style="opacity:0.1;" d="M113.509,77.536h-1.071c1.347,0,2.44,0.914,2.44,2.042v15.467c0,1.128-1.092,2.042-2.44,2.042h1.071
			c1.347,0,2.44-0.914,2.44-2.042V79.579C115.949,78.451,114.857,77.536,113.509,77.536z"/>
		<path style="fill:#808080;" d="M93.007,65.99h-2.974c-0.305,0-0.553-0.248-0.553-0.553v-5.121c0-0.305,0.248-0.553,0.553-0.553
			h2.974c0.305,0,0.553,0.248,0.553,0.553v5.121C93.56,65.743,93.312,65.99,93.007,65.99z"/>
		<path style="fill:none;stroke:#000000;stroke-width:0.3775;stroke-miterlimit:10;" d="M93.007,65.99h-2.974
			c-0.305,0-0.553-0.248-0.553-0.553v-5.121c0-0.305,0.248-0.553,0.553-0.553h2.974c0.305,0,0.553,0.248,0.553,0.553v5.121
			C93.56,65.743,93.312,65.99,93.007,65.99z"/>
		<path style="opacity:0.1;" d="M93.097,59.763h-1.344c0.255,0,0.463,0.093,0.463,0.209v5.81c0,0.115-0.207,0.209-0.463,0.209h1.344
			c0.255,0,0.463-0.093,0.463-0.209v-5.81C93.56,59.856,93.352,59.763,93.097,59.763z"/>
		<circle style="fill:#E6E6E6;" cx="92.072" cy="100.204" r="7.298"/>
		<path style="opacity:0.1;" d="M93.747,92.898c-0.535-0.121-1.069-0.174-1.595-0.175c3.023,1.428,4.764,4.802,3.998,8.199
			c-0.766,3.397-3.787,5.697-7.13,5.689c0.476,0.225,0.981,0.406,1.516,0.526c3.932,0.887,7.838-1.582,8.725-5.514
			C100.148,97.691,97.679,93.785,93.747,92.898z"/>
		<path style="fill:none;stroke:#000000;stroke-width:0.3775;stroke-miterlimit:10;" d="M112.974,97.087h-1.616V77.537h1.616
			c1.643,0,2.974,1.332,2.974,2.974v13.602C115.949,95.756,114.617,97.087,112.974,97.087z"/>
		<circle style="fill:none;stroke:#000000;stroke-width:0.5662;stroke-miterlimit:10;" cx="92.072" cy="100.204" r="7.298"/>
		<g>
			<path d="M90.976,96.244c0.863-0.313,1.841-0.27,2.726,0.039c0.875,0.34,1.65,0.975,2.137,1.801
				c1.02,1.649,0.679,3.986-0.76,5.315c-1.416,1.359-3.764,1.552-5.352,0.437c-0.786-0.544-1.392-1.342-1.664-2.244
				c-0.27-0.901-0.228-1.88,0.124-2.723c-0.508,1.766,0.282,3.721,1.776,4.602c0.737,0.44,1.609,0.653,2.458,0.567
				c0.845-0.092,1.664-0.455,2.27-1.05c1.285-1.137,1.603-3.172,0.769-4.69C94.672,96.75,92.769,95.841,90.976,96.244z"/>
		</g>
		<g style="opacity:0.3;">
			<path style="fill:none;" d="M106.617,115.726"/>
		</g>
		<g style="opacity:0.3;">
			<path style="fill:none;" d="M106.617,92.906"/>
		</g>
		<g style="opacity:0.7;">
			<path style="fill:#FFFFFF;" d="M86.655,100.909c-0.392-1.236-0.253-2.681,0.383-3.926c0.313-0.612,0.668-1.299,1.312-1.652
				c0.623-0.353,1.356-0.544,2.091-0.345l0.046,0.143c-0.458,0.584-0.851,0.982-1.224,1.391c-0.354,0.407-0.85,0.666-1.214,1.108
				c-0.723,0.864-1.171,2.01-1.246,3.263L86.655,100.909z"/>
		</g>
		<g style="opacity:0.2;">
			<path d="M97.636,99.241c0.353,0.625,0.485,1.372,0.423,2.106c-0.053,0.739-0.31,1.462-0.704,2.097
				c-0.408,0.626-0.95,1.172-1.6,1.529c-0.64,0.364-1.37,0.565-2.087,0.509c1.184-0.784,2.083-1.604,2.732-2.645
				C97.067,101.806,97.435,100.647,97.636,99.241z"/>
		</g>
		<g style="opacity:0.6;">
			<path style="fill:#FFFFFF;" d="M31.048,92.906c-0.181-2.561-0.3-5.122-0.453-7.683c-0.04-1.3-0.156-2.511-0.11-3.911
				c0.086-1.362,0.396-2.719,0.928-3.996c0.529-1.276,1.257-2.491,2.191-3.546c0.936-1.052,2.106-1.904,3.398-2.469
				c1.296-0.548,2.683-0.889,4.069-0.866c1.411,0.016,2.641,0.28,3.932,0.59v0.226c-1.268,0.335-2.606,0.487-3.744,0.766
				c-1.165,0.286-2.257,0.741-3.255,1.315c-1.96,1.148-3.861,2.624-4.949,4.751c-0.548,1.043-0.922,2.186-1.105,3.372
				c-0.145,1.156-0.153,2.508-0.222,3.769c-0.153,2.561-0.272,5.122-0.453,7.683H31.048z"/>
		</g>
		<g style="opacity:0.1;">
			<path d="M106.617,125.719c0.392,0.501,0.545,1.002,0.666,1.503c0.05,0.251,0.08,0.501,0.085,0.752
				c0.01,0.388-0.11,0.751-0.284,1.047c-0.186,0.294-0.429,0.57-0.794,0.731c-0.179,0.078-0.379,0.146-0.594,0.13
				c-0.246-0.028-0.316-0.05-0.455-0.071c-0.501-0.106-1.002-0.209-1.503-0.388c0.501-0.178,1.002-0.282,1.503-0.388
				c0.329-0.018,0.323-0.146,0.389-0.253c0.05-0.124,0.119-0.261,0.159-0.411c0.05-0.151,0.068-0.283,0.077-0.398
				c0.005-0.251,0.035-0.501,0.085-0.752C106.072,126.721,106.225,126.22,106.617,125.719z"/>
		</g>
		<g>
			<path style="fill:#7FC899;" d="M40.701,134.364c-0.214-0.126-0.431-0.256-0.658-0.391l0.123-0.139
				c0.224,0.132,0.444,0.264,0.657,0.391L40.701,134.364 M39.382,133.591c-0.217-0.124-0.441-0.25-0.668-0.377l0.116-0.142
				c0.227,0.126,0.451,0.253,0.671,0.377L39.382,133.591 M38.039,132.843c-0.221-0.118-0.448-0.239-0.679-0.36l0.113-0.145
				c0.231,0.121,0.458,0.242,0.682,0.363L38.039,132.843 M36.675,132.13c-0.227-0.115-0.458-0.233-0.692-0.348l0.109-0.148
				c0.234,0.118,0.465,0.233,0.693,0.348L36.675,132.13 M35.286,131.444c-0.231-0.11-0.469-0.219-0.703-0.328l0.103-0.15
				c0.238,0.11,0.472,0.219,0.703,0.331L35.286,131.444 M33.873,130.796c-0.238-0.107-0.476-0.21-0.717-0.311l0.099-0.153
				c0.241,0.104,0.479,0.208,0.717,0.311L33.873,130.796 M32.434,130.181c-0.238-0.098-0.483-0.193-0.728-0.289l0.093-0.156
				c0.245,0.095,0.49,0.193,0.731,0.291L32.434,130.181 M30.974,129.612c-0.245-0.092-0.494-0.182-0.742-0.269l0.086-0.159
				c0.249,0.09,0.497,0.179,0.742,0.269l0,0.003L30.974,129.612 M29.486,129.086c-0.249-0.084-0.498-0.165-0.75-0.243l0.076-0.159
				c0.256,0.078,0.504,0.159,0.757,0.243L29.486,129.086 M27.976,128.613c-0.252-0.076-0.508-0.148-0.764-0.218l0.069-0.162
				c0.256,0.07,0.515,0.142,0.767,0.218h0.003L27.976,128.613 M26.44,128.195c-0.259-0.064-0.519-0.128-0.778-0.187l0.059-0.164
				c0.263,0.058,0.522,0.123,0.782,0.187L26.44,128.195 M24.876,127.841c-0.263-0.056-0.526-0.105-0.79-0.153l0.049-0.167
				c0.267,0.047,0.53,0.1,0.796,0.153L24.876,127.841 M23.292,127.558c-0.267-0.041-0.534-0.077-0.801-0.11l0.035-0.17
				c0.267,0.033,0.537,0.072,0.807,0.113l0.001-0.003l0,0.003c0,0,0,0-0.001,0L23.292,127.558 M21.683,127.358
				c-0.267-0.027-0.538-0.049-0.809-0.068l0.025-0.17c0.271,0.019,0.542,0.04,0.816,0.068L21.683,127.358 M17.624,127.286
				l-0.009-0.173c0.272-0.018,0.547-0.03,0.822-0.04l0.002,0.173C18.164,127.253,17.896,127.268,17.624,127.286 M20.064,127.251
				c-0.271-0.01-0.542-0.015-0.814-0.017l0.008-0.17c0.271-0.001,0.546,0.007,0.821,0.014L20.064,127.251 M16.191,127.424
				l0.348-0.446l0.17,0.093l-0.106,0.133c0.065-0.009,0.129-0.015,0.191-0.021l0.019,0.17c-0.133,0.012-0.269,0.029-0.405,0.044
				L16.191,127.424 M17.164,126.492l-0.171-0.09l0.454-0.579l0.17,0.093L17.164,126.492 M18.072,125.337l-0.171-0.09l0.454-0.576
				l0.171,0.09L18.072,125.337 M20.54,125.307c1.785-0.836,3.796-1.297,5.82-1.463c0.444-0.035,0.889-0.053,1.334-0.055
				c1.589-0.006,3.172,0.199,4.677,0.595c1.916,0.528,3.705,1.347,5.263,2.392c1.569,1.039,2.943,2.265,4.12,3.602
				c-1.274-1.272-2.683-2.455-4.263-3.448c-0.783-0.504-1.622-0.945-2.487-1.343c-0.871-0.393-1.789-0.709-2.731-0.966
				c-1.547-0.424-3.181-0.626-4.822-0.62c-0.359,0.001-0.717,0.013-1.076,0.034c-1.002,0.058-2.001,0.195-2.98,0.408
				C22.417,124.649,21.453,124.927,20.54,125.307 M18.98,124.181l-0.171-0.09l0.454-0.576l0.171,0.09L18.98,124.181 M19.888,123.028
				l-0.17-0.093l0.454-0.576l0.171,0.09L19.888,123.028 M23.064,123.26c1.798-0.833,3.826-1.294,5.86-1.461
				c0.447-0.035,0.895-0.053,1.343-0.055c1.599-0.006,3.193,0.198,4.709,0.595c1.929,0.528,3.732,1.344,5.307,2.391
				c1.583,1.038,2.973,2.267,4.163,3.61c-1.287-1.277-2.713-2.461-4.307-3.457c-0.793-0.504-1.636-0.948-2.51-1.343
				c-0.878-0.393-1.806-0.709-2.752-0.966c-1.558-0.424-3.203-0.626-4.855-0.62c-0.361,0.001-0.722,0.013-1.083,0.034
				c-1.009,0.058-2.014,0.192-2.997,0.405C24.955,122.604,23.984,122.882,23.064,123.26 M20.796,121.873l-0.17-0.093l0.194-0.244
				c0.088-0.114,0.183-0.224,0.277-0.33l0.163,0.101c-0.095,0.102-0.186,0.21-0.27,0.318L20.796,121.873 M21.79,120.79l-0.146-0.118
				c0.198-0.171,0.406-0.327,0.621-0.472l0.125,0.13C22.182,120.472,21.981,120.625,21.79,120.79 M24.597,121.493
				c1.917-0.834,4.053-1.281,6.192-1.442c0.458-0.033,0.918-0.05,1.378-0.052c1.688-0.006,3.372,0.194,4.983,0.59
				c2.038,0.522,3.963,1.332,5.657,2.387c1.704,1.049,3.217,2.295,4.521,3.674c-1.402-1.308-2.946-2.508-4.662-3.512
				c-1.705-1.01-3.597-1.809-5.612-2.302c-1.659-0.429-3.4-0.625-5.15-0.618c-0.368,0.001-0.736,0.012-1.104,0.031
				c-1.06,0.052-2.119,0.184-3.156,0.391C26.603,120.846,25.574,121.118,24.597,121.493 M18.914,125.784l-0.07-0.037
				c0.398-0.647,0.847-1.274,1.305-1.896c0.472-0.616,0.971-1.221,1.51-1.806c0.546-0.58,1.079-1.193,1.831-1.64
				c0.369-0.222,0.772-0.425,1.223-0.551c0.228-0.064,0.479-0.106,0.726-0.107c0.231-0.001,0.457,0.034,0.655,0.121l-0.022,0.065
				c-0.435,0.024-0.789,0.176-1.126,0.355c-0.331,0.188-0.646,0.407-0.951,0.641l-0.926,0.711c-0.315,0.236-0.621,0.489-0.914,0.751
				c-0.585,0.526-1.14,1.08-1.672,1.651C19.938,124.608,19.42,125.19,18.914,125.784 M23.056,119.939l-0.101-0.144
				c0.241-0.123,0.492-0.231,0.749-0.32l0.074,0.155C23.53,119.719,23.29,119.822,23.056,119.939 M24.544,119.39l-0.063-0.161
				c0.25-0.075,0.51-0.149,0.78-0.224l0.06,0.161C25.05,119.241,24.794,119.315,24.544,119.39 M26.103,118.959l-0.053-0.164
				c0.256-0.066,0.519-0.129,0.793-0.195l0.05,0.164C26.622,118.83,26.359,118.893,26.103,118.959 M27.685,118.588l-0.046-0.167
				c0.263-0.055,0.529-0.11,0.802-0.162l0.043,0.167C28.21,118.479,27.944,118.533,27.685,118.588 M29.281,118.279l-0.036-0.167
				c0.266-0.046,0.535-0.09,0.811-0.13l0.029,0.17C29.813,118.192,29.547,118.236,29.281,118.279 M39.809,118.055
				c-0.264-0.039-0.531-0.074-0.801-0.107l0.035-0.167c0.271,0.03,0.541,0.066,0.808,0.107L39.809,118.055 M30.893,118.038
				l-0.026-0.17c0.269-0.032,0.541-0.064,0.817-0.094l0.019,0.167C31.431,117.971,31.162,118.003,30.893,118.038 M38.207,117.863
				c-0.271-0.022-0.538-0.043-0.809-0.059l0.022-0.173c0.271,0.019,0.545,0.04,0.812,0.065L38.207,117.863 M32.516,117.865
				l-0.016-0.17c0.272-0.024,0.544-0.042,0.819-0.06l0.009,0.17C33.057,117.823,32.785,117.844,32.516,117.865 M36.584,117.761
				c-0.268-0.01-0.539-0.015-0.81-0.02l0.008-0.17c0.275,0.005,0.546,0.009,0.817,0.02L36.584,117.761 M34.144,117.765l-0.005-0.17
				c0.272-0.009,0.547-0.016,0.822-0.023l-0.002,0.173C34.684,117.749,34.413,117.756,34.144,117.765 M35.335,116.698
				c-4.828,0.018-9.108,1.064-11.746,1.892c-1.438,0.453-2.725,1.335-3.633,2.488l-4.649,5.917
				c-0.239,0.304-0.247,0.689-0.018,0.982c0.047,0.062,0.103,0.117,0.164,0.162c0.393,0.025,0.786,0.059,1.179,0.101
				c0.811-0.096,1.629-0.142,2.45-0.145c8.393-0.032,17.014,4.491,21.641,7.369l0.796-0.595c-0.056-0.035-0.112-0.07-0.169-0.105
				l0.123-0.139c0.069,0.043,0.137,0.085,0.204,0.127l8.921-6.672c0.801-0.598,0.976-1.648,0.39-2.391
				c-2.852-3.607-6.157-5.951-9.578-7.415l-0.021,0.064c-0.26-0.053-0.523-0.106-0.786-0.153l0.049-0.167
				c0.085,0.015,0.169,0.031,0.253,0.047c-1.518-0.61-3.056-1.05-4.583-1.355C35.99,116.7,35.661,116.697,35.335,116.698"/>
			<path style="fill:#598C6B;" d="M15.454,128.139c0.153,0.115,0.345,0.176,0.55,0.175c0.046,0,0.092-0.003,0.139-0.01
				c0.163-0.024,0.327-0.045,0.49-0.064C16.24,128.198,15.847,128.164,15.454,128.139"/>
			<path style="fill:#598C6B;" d="M43.372,135.908c-0.163,0.001-0.314-0.047-0.448-0.134c-0.093-0.062-0.193-0.127-0.293-0.194
				l0.129-0.136c0.103,0.067,0.2,0.132,0.296,0.197c0.1,0.068,0.208,0.098,0.32,0.098l0.014,0l0.002,0.17L43.372,135.908
				 M44.146,135.537l-0.132-0.124l0.617-0.461l0.136,0.124L44.146,135.537 M45.383,134.615l-0.136-0.127l0.617-0.461L46,134.154
				L45.383,134.615 M46.617,133.693l-0.136-0.127l0.617-0.461l0.136,0.124L46.617,133.693 M47.851,132.769l-0.136-0.124l0.617-0.464
				l0.136,0.127L47.851,132.769 M49.085,131.847l-0.136-0.127l0.62-0.461l0.132,0.127L49.085,131.847 M50.319,130.922l-0.132-0.124
				l0.617-0.461l0.132,0.124L50.319,130.922 M51.553,130l-0.132-0.127l0.617-0.461l0.132,0.127L51.553,130 M52.79,129.078
				l-0.136-0.127l0.617-0.461l0.136,0.124L52.79,129.078 M54.024,128.154l-0.136-0.124l0.617-0.464l0.136,0.127L54.024,128.154
				 M55.119,127.082l-0.203-0.013l0.005-0.048c0.003-0.108-0.028-0.212-0.094-0.294c-0.059-0.073-0.115-0.147-0.174-0.217
				l0.172-0.097c0.059,0.071,0.115,0.144,0.174,0.217c0.092,0.113,0.129,0.251,0.125,0.39L55.119,127.082 M54.197,125.959
				c-0.158-0.183-0.315-0.364-0.477-0.542l0.166-0.105c0.161,0.178,0.322,0.361,0.477,0.545L54.197,125.959 M53.23,124.887
				c-0.168-0.175-0.34-0.347-0.511-0.516l0.159-0.114c0.172,0.172,0.343,0.344,0.511,0.522L53.23,124.887 M52.19,123.867
				c-0.182-0.166-0.364-0.33-0.546-0.488l0.149-0.122c0.186,0.161,0.367,0.327,0.549,0.493L52.19,123.867 M51.077,122.903
				c-0.193-0.155-0.388-0.31-0.584-0.459l0.139-0.128c0.199,0.152,0.395,0.307,0.588,0.462L51.077,122.903 M49.888,122.004
				c-0.203-0.146-0.409-0.287-0.619-0.425l0.129-0.136c0.21,0.141,0.42,0.281,0.626,0.428L49.888,122.004 M48.628,121.174
				c-0.217-0.132-0.437-0.259-0.658-0.382l0.119-0.145c0.22,0.126,0.444,0.256,0.661,0.388L48.628,121.174 M47.299,120.426
				c-0.227-0.118-0.458-0.23-0.689-0.34l0.103-0.15c0.234,0.112,0.469,0.227,0.696,0.345L47.299,120.426 M45.903,119.766
				c-0.238-0.104-0.476-0.202-0.721-0.297l0.093-0.156c0.245,0.098,0.487,0.196,0.728,0.3L45.903,119.766 M44.45,119.195
				c-0.249-0.087-0.497-0.171-0.75-0.249l0.079-0.162c0.252,0.081,0.504,0.165,0.753,0.255L44.45,119.195 M42.939,118.719
				c-0.252-0.073-0.508-0.14-0.768-0.204l0.062-0.161c0.26,0.064,0.519,0.131,0.778,0.204L42.939,118.719 M36.322,116.709
				c1.527,0.305,3.065,0.746,4.583,1.355c0.181,0.034,0.36,0.071,0.54,0.109l-0.034,0.101c3.42,1.463,6.726,3.807,9.578,7.415
				c0.586,0.742,0.411,1.793-0.39,2.391l-8.921,6.672c0.153,0.095,0.3,0.189,0.441,0.28l0.002-0.002l0,0.003
				c-0.001,0-0.001-0.001-0.002-0.001l-0.124,0.137c-0.154-0.098-0.311-0.198-0.474-0.3l-0.796,0.595
				c0.579,0.36,1.097,0.695,1.542,0.992c0.32,0.213,0.699,0.318,1.08,0.316c0.43-0.002,0.863-0.138,1.219-0.404l2.645-1.978
				c-0.014-0.013-0.027-0.026-0.04-0.039l0.312-0.228c0.012,0.012,0.025,0.024,0.037,0.036l8.023-5.998
				c0.676-0.506,0.82-1.396,0.325-2.022C50.252,119.03,42.865,116.877,36.322,116.709"/>
			<path d="M10.274,118.87c-4.216,0.081-7.401,5.09-8.575,7.24c-0.508,0.939-0.591,1.953-0.217,2.783
				c0.351,0.788,0.992,1.287,1.906,1.484c0.31,0.067,0.642,0.097,0.998,0.095c3.44-0.013,8.674-3.031,10.805-4.354l0.671-0.854
				c-0.43,0.284-7.41,4.852-11.46,4.868c-0.321,0.001-0.624-0.026-0.904-0.087c-0.793-0.17-1.327-0.589-1.633-1.279
				c-0.335-0.749-0.258-1.669,0.207-2.523c1.141-2.088,4.22-6.957,8.192-7.032l10.644,0.096c0.16-0.118,0.325-0.231,0.494-0.338
				L10.274,118.87"/>
			<path d="M47.483,134.123l-0.312,0.228c0.014,0.013,0.027,0.026,0.04,0.039l0.309-0.231
				C47.508,134.147,47.496,134.135,47.483,134.123 M54.858,129.426l-0.421,0.315c0.351,0.02,9.812,0.598,14.032,3.838
				c2.328,1.789,2.299,5.494-0.064,7.935c-1.269,1.31-2.845,2.001-4.689,2.048c-0.065,0.002-0.13,0.003-0.196,0.003
				c-4.087,0.016-9.318-3.011-15.559-8.981l-0.309,0.231c6.326,6.051,11.664,9.11,15.874,9.094c0.064,0,0.126-0.003,0.19-0.004
				c1.969-0.053,3.656-0.784,5.005-2.179c2.534-2.62,2.547-6.467,0.029-8.399C64.817,130.306,56.757,129.562,54.858,129.426"/>
			<path d="M15.454,128.139c-0.061-0.046-0.117-0.1-0.164-0.162c-0.229-0.294-0.222-0.678,0.018-0.982l4.649-5.917
				c0.908-1.153,2.195-2.035,3.633-2.488c2.638-0.827,6.918-1.873,11.746-1.892c0.327-0.001,0.656,0.002,0.987,0.011
				c6.543,0.169,13.931,2.322,19.547,9.431c0.495,0.627,0.351,1.516-0.325,2.022l-8.023,5.998l-0.309,0.231l-2.645,1.978
				c-0.356,0.267-0.789,0.403-1.219,0.404c-0.382,0.001-0.761-0.103-1.08-0.316c-0.446-0.297-0.963-0.631-1.542-0.992
				c-4.627-2.878-13.248-7.401-21.641-7.369c-0.822,0.003-1.64,0.049-2.45,0.145c-0.164,0.019-0.327,0.041-0.49,0.064
				c-0.047,0.006-0.093,0.01-0.139,0.01C15.799,128.316,15.607,128.254,15.454,128.139 M35.376,116.125
				c-4.939,0.019-9.316,1.088-12.013,1.936c-0.693,0.217-1.354,0.525-1.961,0.91c-0.169,0.107-0.334,0.22-0.494,0.338
				c-0.572,0.423-1.084,0.916-1.517,1.465l-3.529,4.491l-0.671,0.854l-0.452,0.575c-0.384,0.491-0.395,1.12-0.025,1.599
				c0.289,0.375,0.758,0.591,1.266,0.589c0.085,0,0.172-0.007,0.259-0.02c0.91-0.13,1.831-0.192,2.759-0.196
				c9.58-0.037,19.739,6.178,22.836,8.236c0.443,0.295,0.968,0.441,1.498,0.439c0.594-0.002,1.189-0.189,1.682-0.556l2.638-1.972
				l0.309-0.231l6.477-4.842l0.421-0.315l1.132-0.846c0.926-0.694,1.126-1.906,0.451-2.762
				C50.38,118.149,42.322,116.098,35.376,116.125"/>
			<path style="fill:#FFFFFF;" d="M16.54,126.979l-0.348,0.446l0.218-0.026c0.136-0.015,0.272-0.032,0.405-0.044l-0.019-0.17
				c-0.061,0.006-0.126,0.012-0.191,0.021l0.106-0.133L16.54,126.979"/>
			<path style="fill:#FFFFFF;" d="M42.76,135.444l-0.129,0.136c0.1,0.067,0.2,0.132,0.293,0.194
				c0.133,0.087,0.285,0.135,0.448,0.134l0.02,0l-0.002-0.17l-0.014,0c-0.112,0-0.22-0.03-0.32-0.098
				C42.96,135.576,42.864,135.511,42.76,135.444 M42.121,135.03l-0.002,0.002c0,0,0.001,0.001,0.002,0.001L42.121,135.03
				 M44.63,134.952l-0.617,0.461l0.132,0.124l0.62-0.461L44.63,134.952 M41.474,134.625l-0.123,0.139
				c0.057,0.035,0.114,0.07,0.169,0.105c0.163,0.102,0.32,0.202,0.474,0.3l0.124-0.137c-0.141-0.092-0.289-0.185-0.441-0.28
				C41.611,134.71,41.543,134.668,41.474,134.625 M45.864,134.028l-0.617,0.461l0.136,0.127L46,134.154L45.864,134.028
				 M40.166,133.834l-0.123,0.139c0.227,0.135,0.444,0.264,0.658,0.391l0.123-0.139C40.61,134.099,40.39,133.967,40.166,133.834
				 M47.098,133.106l-0.617,0.461l0.136,0.127l0.617-0.464L47.098,133.106 M38.83,133.072l-0.116,0.142
				c0.227,0.127,0.451,0.253,0.668,0.377l0.119-0.142C39.281,133.325,39.057,133.199,38.83,133.072 M37.473,132.339l-0.113,0.145
				c0.231,0.121,0.458,0.242,0.679,0.36l0.116-0.142C37.931,132.58,37.704,132.46,37.473,132.339 M48.332,132.181l-0.617,0.464
				l0.136,0.124l0.617-0.461L48.332,132.181 M36.092,131.634l-0.109,0.148c0.234,0.115,0.465,0.233,0.692,0.348l0.109-0.148
				C36.557,131.867,36.326,131.752,36.092,131.634 M49.569,131.259l-0.62,0.461l0.136,0.127l0.617-0.461L49.569,131.259
				 M34.686,130.965l-0.103,0.15c0.234,0.11,0.472,0.219,0.703,0.328l0.103-0.148C35.158,131.184,34.923,131.075,34.686,130.965
				 M50.803,130.337l-0.617,0.461l0.132,0.124l0.617-0.461L50.803,130.337 M33.255,130.331l-0.099,0.153
				c0.242,0.101,0.479,0.205,0.717,0.311l0.099-0.153C33.734,130.539,33.496,130.435,33.255,130.331 M31.799,129.737l-0.093,0.156
				c0.245,0.095,0.49,0.191,0.728,0.289l0.096-0.153C32.289,129.93,32.044,129.832,31.799,129.737 M52.037,129.412l-0.617,0.461
				L51.553,130l0.617-0.461L52.037,129.412 M30.318,129.185l-0.086,0.159c0.249,0.087,0.497,0.176,0.742,0.269l0.086-0.156l0-0.003
				C30.815,129.364,30.566,129.274,30.318,129.185 M28.812,128.684l-0.076,0.159c0.252,0.078,0.501,0.159,0.75,0.243l0.083-0.159
				C29.316,128.843,29.067,128.762,28.812,128.684 M53.271,128.491l-0.617,0.461l0.136,0.127l0.617-0.464L53.271,128.491
				 M27.281,128.234l-0.069,0.162c0.256,0.07,0.512,0.142,0.764,0.218l0.076-0.162h-0.003
				C27.796,128.376,27.537,128.304,27.281,128.234 M25.721,127.844l-0.059,0.164c0.26,0.058,0.519,0.123,0.778,0.187l0.062-0.164
				C26.243,127.966,25.984,127.902,25.721,127.844 M54.505,127.566l-0.617,0.464l0.136,0.124l0.617-0.461L54.505,127.566
				 M24.135,127.521l-0.049,0.167c0.263,0.047,0.527,0.097,0.79,0.153l0.056-0.167C24.665,127.621,24.402,127.568,24.135,127.521
				 M23.335,127.388l-0.001,0.003c0,0,0,0,0.001,0L23.335,127.388 M22.527,127.278l-0.035,0.17c0.267,0.033,0.534,0.069,0.801,0.11
				l0.041-0.167C23.064,127.35,22.794,127.311,22.527,127.278 M20.899,127.12l-0.025,0.17c0.271,0.019,0.542,0.04,0.809,0.068
				l0.032-0.17C21.441,127.161,21.17,127.139,20.899,127.12 M18.437,127.073c-0.275,0.01-0.55,0.022-0.822,0.04l0.009,0.173
				c0.272-0.018,0.54-0.033,0.815-0.04L18.437,127.073 M19.258,127.064l-0.008,0.17c0.271,0.002,0.543,0.007,0.814,0.017
				l0.015-0.173C19.804,127.071,19.53,127.063,19.258,127.064 M54.826,126.413l-0.172,0.097c0.059,0.071,0.115,0.144,0.174,0.217
				c0.066,0.082,0.097,0.186,0.094,0.294l-0.005,0.048l0.203,0.013l0.005-0.062c0.004-0.139-0.033-0.277-0.125-0.39
				C54.941,126.556,54.885,126.483,54.826,126.413 M17.448,125.823l-0.454,0.579l0.171,0.09l0.454-0.576L17.448,125.823
				 M53.887,125.312l-0.166,0.105c0.161,0.178,0.319,0.358,0.477,0.542l0.166-0.102C54.209,125.673,54.048,125.49,53.887,125.312
				 M18.355,124.67l-0.454,0.576l0.171,0.09l0.454-0.576L18.355,124.67 M52.878,124.257l-0.159,0.114
				c0.172,0.169,0.343,0.341,0.511,0.516l0.159-0.108C53.221,124.601,53.05,124.429,52.878,124.257 M19.263,123.515l-0.454,0.576
				l0.171,0.09l0.454-0.576L19.263,123.515 M51.793,123.257l-0.149,0.122c0.182,0.158,0.364,0.321,0.546,0.488l0.153-0.117
				C52.161,123.584,51.979,123.417,51.793,123.257 M50.632,122.316l-0.139,0.128c0.196,0.149,0.392,0.304,0.584,0.459l0.143-0.125
				C51.027,122.623,50.831,122.468,50.632,122.316 M20.171,122.359l-0.454,0.576l0.17,0.093l0.454-0.579L20.171,122.359
				 M49.398,121.443l-0.129,0.136c0.21,0.138,0.416,0.279,0.619,0.425l0.136-0.134C49.817,121.724,49.608,121.584,49.398,121.443
				 M21.096,121.206c-0.095,0.105-0.189,0.216-0.277,0.33l-0.194,0.244l0.17,0.093l0.194-0.247c0.084-0.108,0.176-0.216,0.27-0.318
				L21.096,121.206 M48.09,120.647l-0.119,0.145c0.221,0.124,0.441,0.25,0.658,0.382l0.123-0.139
				C48.534,120.903,48.311,120.773,48.09,120.647 M22.265,120.2c-0.214,0.145-0.423,0.302-0.621,0.472l0.146,0.118
				c0.191-0.165,0.392-0.318,0.6-0.461L22.265,120.2 M46.712,119.936l-0.103,0.15c0.231,0.109,0.462,0.222,0.689,0.34l0.109-0.145
				C47.181,120.164,46.947,120.048,46.712,119.936 M23.703,119.475c-0.257,0.089-0.508,0.197-0.749,0.32l0.101,0.144
				c0.234-0.117,0.474-0.22,0.721-0.308L23.703,119.475 M45.274,119.313l-0.093,0.156c0.245,0.095,0.483,0.193,0.721,0.297
				l0.099-0.153C45.761,119.509,45.519,119.411,45.274,119.313 M25.26,119.005c-0.27,0.075-0.53,0.149-0.78,0.224l0.063,0.161
				c0.25-0.075,0.506-0.149,0.777-0.224L25.26,119.005 M43.779,118.784l-0.079,0.162c0.252,0.078,0.501,0.162,0.75,0.249
				l0.082-0.156C44.283,118.949,44.031,118.865,43.779,118.784 M26.843,118.6c-0.273,0.066-0.536,0.129-0.793,0.195l0.053,0.164
				c0.256-0.066,0.519-0.129,0.789-0.195L26.843,118.6 M42.234,118.354l-0.062,0.161c0.26,0.064,0.516,0.131,0.768,0.204
				l0.072-0.162C42.753,118.485,42.493,118.418,42.234,118.354 M28.44,118.26c-0.273,0.052-0.539,0.107-0.802,0.162l0.046,0.167
				c0.259-0.055,0.526-0.11,0.799-0.162L28.44,118.26 M40.652,118.017l-0.049,0.167c0.263,0.047,0.527,0.1,0.786,0.153l0.021-0.064
				l0.034-0.101c-0.18-0.038-0.359-0.074-0.54-0.109C40.821,118.048,40.737,118.032,40.652,118.017 M30.056,117.982
				c-0.276,0.041-0.545,0.084-0.811,0.13l0.036,0.167c0.266-0.044,0.532-0.087,0.804-0.128L30.056,117.982 M39.044,117.78
				l-0.035,0.167c0.271,0.033,0.538,0.069,0.801,0.107l0.042-0.167C39.585,117.846,39.314,117.81,39.044,117.78 M31.684,117.775
				c-0.276,0.029-0.548,0.062-0.817,0.094l0.026,0.17c0.269-0.035,0.538-0.067,0.81-0.097L31.684,117.775 M37.419,117.631
				l-0.022,0.173c0.271,0.016,0.538,0.038,0.809,0.059l0.025-0.167C37.964,117.671,37.69,117.649,37.419,117.631 M33.32,117.635
				c-0.275,0.018-0.547,0.036-0.819,0.06l0.016,0.17c0.269-0.021,0.541-0.042,0.813-0.06L33.32,117.635 M35.782,117.572l-0.008,0.17
				c0.271,0.005,0.543,0.009,0.81,0.02l0.015-0.17C36.328,117.581,36.057,117.576,35.782,117.572 M34.961,117.572
				c-0.275,0.007-0.55,0.013-0.822,0.023l0.005,0.17c0.268-0.009,0.54-0.016,0.815-0.02L34.961,117.572"/>
			<path style="fill:#D9EFE1;" d="M25.44,119.747c-0.246,0.001-0.498,0.043-0.726,0.107c-0.451,0.126-0.854,0.329-1.223,0.551
				c-0.752,0.447-1.285,1.061-1.831,1.64c-0.539,0.585-1.038,1.19-1.51,1.806c-0.459,0.622-0.907,1.249-1.305,1.896l0.07,0.037
				c0.505-0.594,1.024-1.176,1.569-1.741c0.532-0.571,1.087-1.125,1.672-1.651c0.292-0.262,0.598-0.515,0.914-0.751l0.926-0.711
				c0.305-0.233,0.62-0.453,0.951-0.641c0.338-0.18,0.691-0.331,1.126-0.355l0.022-0.065
				C25.897,119.781,25.67,119.746,25.44,119.747"/>
			<path style="fill:#6BA981;" d="M32.166,120c-0.459,0.002-0.919,0.019-1.378,0.052c-2.139,0.161-4.275,0.608-6.192,1.442
				c0.978-0.374,2.007-0.647,3.047-0.852c1.037-0.208,2.096-0.339,3.156-0.391c0.368-0.019,0.736-0.03,1.104-0.031
				c1.749-0.007,3.491,0.19,5.15,0.618c2.015,0.493,3.906,1.293,5.612,2.302c1.716,1.004,3.26,2.204,4.662,3.512
				c-1.305-1.379-2.817-2.625-4.521-3.674c-1.694-1.055-3.619-1.866-5.657-2.387C35.539,120.193,33.854,119.993,32.166,120"/>
			<path style="fill:#6BA981;" d="M30.267,121.744c-0.448,0.002-0.896,0.02-1.343,0.055c-2.034,0.166-4.062,0.627-5.86,1.461
				c0.92-0.377,1.891-0.656,2.878-0.866c0.983-0.213,1.988-0.347,2.997-0.405c0.361-0.021,0.722-0.032,1.083-0.034
				c1.652-0.006,3.297,0.196,4.855,0.62c0.946,0.257,1.874,0.573,2.752,0.966c0.874,0.396,1.717,0.84,2.51,1.343
				c1.594,0.996,3.02,2.179,4.307,3.457c-1.191-1.343-2.581-2.572-4.163-3.61c-1.575-1.047-3.378-1.864-5.307-2.391
				C33.46,121.942,31.866,121.738,30.267,121.744"/>
			<path style="fill:#6BA981;" d="M27.693,123.789c-0.445,0.002-0.89,0.02-1.334,0.055c-2.024,0.166-4.035,0.627-5.82,1.463
				c0.913-0.38,1.878-0.658,2.854-0.866c0.98-0.213,1.978-0.35,2.98-0.408c0.359-0.021,0.717-0.033,1.076-0.034
				c1.641-0.006,3.274,0.196,4.822,0.62c0.943,0.257,1.86,0.573,2.731,0.966c0.864,0.399,1.703,0.84,2.487,1.343
				c1.58,0.993,2.989,2.177,4.263,3.448c-1.177-1.337-2.551-2.563-4.12-3.602c-1.559-1.044-3.347-1.864-5.263-2.392
				C30.865,123.988,29.282,123.783,27.693,123.789"/>
			<path style="fill:#6BA981;" d="M32.166,120c-0.459,0.002-0.919,0.019-1.378,0.052c-2.139,0.161-4.275,0.608-6.192,1.442
				c0.978-0.374,2.007-0.647,3.047-0.852c1.037-0.208,2.096-0.339,3.156-0.391c0.368-0.019,0.736-0.03,1.104-0.031
				c1.749-0.007,3.491,0.19,5.15,0.618c2.015,0.493,3.906,1.293,5.612,2.302c1.716,1.004,3.26,2.204,4.662,3.512
				c-1.305-1.379-2.817-2.625-4.521-3.674c-1.694-1.055-3.619-1.866-5.657-2.387C35.539,120.193,33.854,119.993,32.166,120"/>
			<path style="fill:#6BA981;" d="M30.267,121.744c-0.448,0.002-0.896,0.02-1.343,0.055c-2.034,0.166-4.062,0.627-5.86,1.461
				c0.92-0.377,1.891-0.656,2.878-0.866c0.983-0.213,1.988-0.347,2.997-0.405c0.361-0.021,0.722-0.032,1.083-0.034
				c1.652-0.006,3.297,0.196,4.855,0.62c0.946,0.257,1.874,0.573,2.752,0.966c0.874,0.396,1.717,0.84,2.51,1.343
				c1.594,0.996,3.02,2.179,4.307,3.457c-1.191-1.343-2.581-2.572-4.163-3.61c-1.575-1.047-3.378-1.864-5.307-2.391
				C33.46,121.942,31.866,121.738,30.267,121.744"/>
			<path style="fill:#6BA981;" d="M27.693,123.789c-0.445,0.002-0.89,0.02-1.334,0.055c-2.024,0.166-4.035,0.627-5.82,1.463
				c0.913-0.38,1.878-0.658,2.854-0.866c0.98-0.213,1.978-0.35,2.98-0.408c0.359-0.021,0.717-0.033,1.076-0.034
				c1.641-0.006,3.274,0.196,4.822,0.62c0.943,0.257,1.86,0.573,2.731,0.966c0.864,0.399,1.703,0.84,2.487,1.343
				c1.58,0.993,2.989,2.177,4.263,3.448c-1.177-1.337-2.551-2.563-4.12-3.602c-1.559-1.044-3.347-1.864-5.263-2.392
				C30.865,123.988,29.282,123.783,27.693,123.789"/>
			<path style="fill:#518061;" d="M32.166,120c-0.459,0.002-0.919,0.019-1.378,0.052c-2.139,0.161-4.275,0.608-6.192,1.442
				c0.978-0.374,2.007-0.647,3.047-0.852c1.037-0.208,2.096-0.339,3.156-0.391c0.368-0.019,0.736-0.03,1.104-0.031
				c1.749-0.007,3.491,0.19,5.15,0.618c2.015,0.493,3.906,1.293,5.612,2.302c1.716,1.004,3.26,2.204,4.662,3.512
				c-1.305-1.379-2.817-2.625-4.521-3.674c-1.694-1.055-3.619-1.866-5.657-2.387C35.539,120.193,33.854,119.993,32.166,120"/>
			<path style="fill:#518061;" d="M30.267,121.744c-0.448,0.002-0.896,0.02-1.343,0.055c-2.034,0.166-4.062,0.627-5.86,1.461
				c0.92-0.377,1.891-0.656,2.878-0.866c0.983-0.213,1.988-0.347,2.997-0.405c0.361-0.021,0.722-0.032,1.083-0.034
				c1.652-0.006,3.297,0.196,4.855,0.62c0.946,0.257,1.874,0.573,2.752,0.966c0.874,0.396,1.717,0.84,2.51,1.343
				c1.594,0.996,3.02,2.179,4.307,3.457c-1.191-1.343-2.581-2.572-4.163-3.61c-1.575-1.047-3.378-1.864-5.307-2.391
				C33.46,121.942,31.866,121.738,30.267,121.744"/>
			<path style="fill:#518061;" d="M27.693,123.789c-0.445,0.002-0.89,0.02-1.334,0.055c-2.024,0.166-4.035,0.627-5.82,1.463
				c0.913-0.38,1.878-0.658,2.854-0.866c0.98-0.213,1.978-0.35,2.98-0.408c0.359-0.021,0.717-0.033,1.076-0.034
				c1.641-0.006,3.274,0.196,4.822,0.62c0.943,0.257,1.86,0.573,2.731,0.966c0.864,0.399,1.703,0.84,2.487,1.343
				c1.58,0.993,2.989,2.177,4.263,3.448c-1.177-1.337-2.551-2.563-4.12-3.602c-1.559-1.044-3.347-1.864-5.263-2.392
				C30.865,123.988,29.282,123.783,27.693,123.789"/>
		</g>
		<g>
			<path style="fill:#B3B3B3;" d="M36.887,105.942l-0.052,5.306l-0.016,5.305c-0.002,0.442-0.022,0.884-0.044,1.326
				c-0.022,0.442-0.069,0.884-0.221,1.326c-0.152-0.442-0.199-0.884-0.221-1.326c-0.021-0.442-0.042-0.884-0.044-1.326l-0.016-5.305
				l-0.052-5.306H36.887z"/>
			<path style="fill:#B3B3B3;" d="M36.466,117.879c-0.021-0.442-0.042-0.884-0.044-1.326l-0.016-5.305l-0.052-5.306h-0.133
				l0.052,5.306l0.016,5.305c0.002,0.442,0.022,0.884,0.044,1.326c0.022,0.442,0.069,0.884,0.221,1.326
				c0.026-0.077,0.046-0.153,0.066-0.23C36.523,118.61,36.484,118.245,36.466,117.879z"/>
			<path style="opacity:0.2;" d="M36.751,105.942l-0.052,5.306l-0.016,5.305c-0.002,0.442-0.022,0.884-0.044,1.326
				c-0.018,0.364-0.057,0.727-0.153,1.091c0.021,0.079,0.041,0.157,0.068,0.236c0.152-0.442,0.199-0.884,0.221-1.326
				c0.021-0.442,0.042-0.884,0.044-1.326l0.016-5.305l0.052-5.306H36.751z"/>
		</g>
		<path style="fill:#666666;" d="M37.51,105.942h-1.735c-0.452,0-0.856-0.28-1.015-0.703l-0.982-5.035h5.554l-0.785,4.973
			C38.406,105.632,37.986,105.942,37.51,105.942z"/>
		<path style="opacity:0.4;" d="M38.261,100.204l-0.784,4.973c-0.14,0.455-0.561,0.765-1.036,0.765h1.069
			c0.476,0,0.897-0.31,1.036-0.765l0.785-4.973H38.261z"/>
		<path style="fill:none;stroke:#000000;stroke-width:0.3775;stroke-miterlimit:10;" d="M37.51,105.942h-1.735
			c-0.452,0-0.856-0.28-1.015-0.703l-0.982-5.035h5.554l-0.785,4.973C38.406,105.632,37.986,105.942,37.51,105.942z"/>
	</g>
	<g>
		<path style="fill:#147066;" d="M131.887,68.83h6.82l5.676,13.182l5.715-13.182h6.819v26.973h-6.858l0.038-7.772l0.419-5.448
			l-0.229-0.038l-3.543,9.257h-4.686l-3.619-9.257l-0.191,0.038l0.457,5.448v7.772h-6.82V68.83z"/>
		<path style="fill:#147066;" d="M184.082,95.803h-7.315l-1.753-5.41h-7.2l-1.676,5.41h-7.315l9.41-26.973h6.21L184.082,95.803z
			 M173.376,84.336l-1.867-7.887h-0.191l-1.981,7.887H173.376z"/>
		<path style="fill:#147066;" d="M188.464,87.269c2.705,3.277,8.648,3.429,8.839,0.534c0.076-1.524-2.4-2.401-4.61-2.705
			c-4.343-0.686-8.305-3.429-8.305-8.572c0-5.296,4.8-8.077,9.753-8.077c3.277,0,6.438,0.914,9.22,4.305l-4.458,3.429
			c-2.819-3.01-7.657-2.895-7.772,0.229c0.076,1.295,1.486,2.057,3.581,2.514c4.8,0.877,9.6,2.552,9.295,9.181
			c-0.229,5.219-5.714,8.076-10.667,8.076c-3.238,0-6.667-1.638-9.181-4.876L188.464,87.269z"/>
		<path style="fill:#147066;" d="M221.115,68.83h8.496l-10.667,13.029l10.629,13.944h-8.648l-6.896-9.639l-0.229,0.304v9.334h-6.857
			V68.83h6.857v9.981L221.115,68.83z"/>
		<path style="fill:#2D2D2D;" d="M148.688,116.364c3.695,1.867,4.153,5.334,3.81,7.391c-0.686,4.343-3.619,6.972-9.6,6.972h-11.01
			v-26.972h10.82c5.143,0,8.915,3.086,8.762,8.229C151.431,113.202,150.631,115.373,148.688,116.364z M142.707,114.307
			c3.314,0,3.429-4.8,0-4.8h-3.962v4.8H142.707z M142.707,124.746c4.114,0,4.038-5.524,0-5.524h-3.962v5.524H142.707z"/>
		<path style="fill:#2D2D2D;" d="M178.024,130.726h-7.315l-1.753-5.409h-7.2l-1.676,5.409h-7.315l9.41-26.972h6.21L178.024,130.726z
			 M167.319,119.259l-1.867-7.886h-0.191l-1.981,7.886H167.319z"/>
		<path style="fill:#2D2D2D;" d="M179.816,103.754h6.476l6.515,11.505l2.286,5.41l0.191-0.038c-0.038,0-0.724-4.648-0.762-4.648
			v-12.229h6.781v26.972h-6.895l-6.096-10.629l-2.362-5.41l-0.19,0.038l0.876,5.219v10.781h-6.82V103.754z"/>
		<path style="fill:#2D2D2D;" d="M228.467,130.726h-7.315l-1.753-5.409h-7.2l-1.676,5.409h-7.315l9.41-26.972h6.21L228.467,130.726z
			 M217.762,119.259l-1.867-7.886h-0.191l-1.981,7.886H217.762z"/>
		<path style="fill:#2D2D2D;" d="M228.887,112.631c0-6.209,5.562-9.257,11.162-9.257c5.6,0,11.2,3.086,11.2,9.257v9.22
			c0,6.172-5.562,9.257-11.162,9.257c-5.6,0-11.2-3.086-11.2-9.257V112.631z M235.707,121.85c0,1.981,2.21,2.933,4.381,2.933
			c2.171,0,4.343-0.99,4.343-2.933v-9.22c0-2.095-2.248-3.048-4.457-3.048c-2.134,0-4.267,1.067-4.267,3.048V121.85z"/>
	</g>
	<path style="fill:none;stroke:#2D2D2D;stroke-width:3.7723;stroke-linejoin:round;stroke-miterlimit:10;" d="M47.669,57.017V45.688
		l79.422-42.802l51.243,26.473l0,0V14.117c0-0.591,0.479-1.07,1.07-1.07h8.574c0.591,0,1.07,0.479,1.07,1.07V34.92l0,0
		l20.093,10.768v11.329"/>
	<polyline style="fill:none;stroke:#2D2D2D;stroke-width:3.7723;stroke-miterlimit:10;" points="209.142,146.728 209.142,166.522 
		47.669,166.522 47.669,146.728 	"/>
</g>
</svg>
