<?xml version="1.0" standalone="no"?>
<!DOCTYPE svg PUBLIC "-//W3C//DTD SVG 20010904//EN"
 "http://www.w3.org/TR/2001/REC-SVG-20010904/DTD/svg10.dtd">
<svg version="1.0" xmlns="http://www.w3.org/2000/svg"
 width="691.000000pt" height="691.000000pt" viewBox="0 0 691.000000 691.000000"
 preserveAspectRatio="xMidYMid meet">
<metadata>
Created by potrace 1.11, written by Peter Selinger 2001-2013
</metadata>
<g transform="translate(0.000000,691.000000) scale(0.100000,-0.100000)"
fill="#000000" stroke="none">
<path d="M5324 5980 l-29 -5 -3 -189 c-2 -130 1 -192 9 -196 18 -12 232 -10
246 2 17 14 19 373 2 384 -13 8 -184 11 -225 4z"/>
<path d="M2240 5490 c-19 -4 -51 -10 -70 -14 -63 -13 -182 -66 -254 -114 -129
-85 -220 -189 -290 -328 -79 -159 -84 -205 -82 -807 l1 -512 24 -44 c56 -106
134 -146 283 -146 l97 0 10 -45 c6 -25 13 -58 16 -75 4 -29 19 -102 31 -157 8
-35 35 -58 70 -62 l29 -3 3 -297 c2 -163 0 -296 -5 -296 -168 -6 -263 -11
-283 -15 -14 -3 -45 -7 -70 -10 -25 -3 -56 -8 -70 -10 -14 -3 -36 -7 -50 -10
-177 -32 -303 -69 -383 -112 -22 -11 -71 -14 -250 -13 -526 4 -518 4 -602 -37
-119 -60 -238 -186 -338 -357 -42 -72 -46 -83 -44 -140 4 -143 101 -186 319
-141 83 17 301 114 429 191 68 41 75 42 53 9 -21 -32 -12 -80 18 -105 20 -16
35 -18 108 -13 155 10 280 5 375 -13 17 -4 36 -7 43 -7 6 0 12 -9 12 -20 0
-33 42 -97 80 -120 33 -21 49 -22 240 -25 l205 -2 150 -74 c127 -62 229 -120
405 -229 38 -24 105 -29 145 -13 16 7 67 41 113 76 l83 63 27 -25 c180 -165
331 -282 477 -370 46 -28 194 -98 239 -113 119 -40 278 -44 366 -9 102 40 183
114 233 214 57 115 48 257 -23 347 -23 30 -92 82 -143 108 -21 11 -40 22 -42
25 -2 3 544 4 1213 3 851 -2 1228 1 1252 9 46 14 79 44 101 93 17 38 17 121
17 1570 0 842 -4 1553 -9 1580 -18 106 -22 121 -65 210 -84 175 -229 299 -429
366 l-70 24 -1830 1 c-1007 1 -1846 -2 -1865 -6z m2061 -1368 c71 -36 123 -93
151 -166 16 -42 17 -114 15 -933 l-2 -888 -625 -1 -626 -1 -59 55 c-113 103
-216 173 -360 245 -164 81 -425 146 -604 150 -27 1 -41 6 -43 16 -3 9 -3 117
-2 241 2 124 3 253 3 287 1 59 2 63 24 59 26 -4 72 17 80 37 3 7 15 77 28 155
22 140 23 142 48 142 244 3 298 7 343 27 95 43 146 122 153 236 8 126 16 169
35 206 23 44 65 91 106 119 66 45 98 48 701 47 l570 -1 64 -32z m-3167 -1772
c-24 -25 -51 -56 -61 -70 -9 -14 -22 -30 -28 -36 -5 -6 -44 -54 -85 -108 -67
-88 -84 -103 -166 -152 -410 -242 -674 -298 -743 -158 -8 16 -14 46 -14 67 2
101 190 358 323 442 101 64 102 64 477 62 l341 -1 -44 -46z m2788 -741 c104
-52 163 -102 192 -162 89 -189 -36 -425 -259 -490 -64 -18 -180 -15 -265 7
-60 17 -239 92 -250 107 -3 3 -21 14 -40 24 -95 49 -477 352 -479 380 -1 6 24
28 55 50 31 22 62 45 68 50 41 37 87 64 112 67 16 1 203 2 416 1 l388 -3 62
-31z"/>
<path d="M6606 4910 c-2 -3 -3 -272 -3 -597 l0 -593 24 -1 c12 0 52 0 88 0
120 0 124 0 157 30 l33 29 0 536 0 536 -32 32 -33 32 -115 1 c-64 1 -118 -2
-119 -5z"/>
</g>
</svg>
