<?xml version="1.0" encoding="UTF-8"?>
<svg width="16px" height="16px" viewBox="0 0 16 16" version="1.1" xmlns="http://www.w3.org/2000/svg" xmlns:xlink="http://www.w3.org/1999/xlink">
    <!-- Generator: Sketch 59.1 (86144) - https://sketch.com -->
    <title>arrows-explore</title>
    <desc>Created with Sketch.</desc>
    <g id="Page-1" stroke="none" stroke-width="1" fill="none" fill-rule="evenodd">
        <g id="Home-1440_" transform="translate(-712.000000, -736.000000)" fill="#FFFFFF" fill-rule="nonzero">
            <g id="arrows-explore" transform="translate(712.000000, 735.000000)">
                <g id="right-arrow-(1)" transform="translate(7.988350, 12.977655) rotate(-270.000000) translate(-7.988350, -12.977655) translate(3.988350, 5.477655)">
                    <path d="M0.929635834,14.4847313 C0.829134663,14.5852325 0.703508199,14.6354831 0.565319088,14.6354831 C0.427129978,14.6354831 0.301503514,14.5852325 0.201002342,14.4847313 C1.60982339e-15,14.283729 1.60982339e-15,13.9571002 0.201002342,13.7560978 L6.60795201,7.34914815 L0.201002342,0.94219848 C7.21644966e-16,0.741196138 7.21644966e-16,0.414567331 0.201002342,0.213564989 C0.402004685,0.0125626464 0.728633492,0.0125626464 0.929635834,0.213564989 L7.70090225,6.9848314 C7.90190459,7.18583374 7.90190459,7.51246255 7.70090225,7.71346489 L0.929635834,14.4847313 L0.929635834,14.4847313 Z" id="Shape"></path>
                </g>
                <g id="right-arrow-(1)" opacity="0.599999964" transform="translate(7.988350, 4.977655) rotate(-270.000000) translate(-7.988350, -4.977655) translate(3.988350, -2.522345)">
                    <path d="M0.929635834,14.4847313 C0.829134663,14.5852325 0.703508199,14.6354831 0.565319088,14.6354831 C0.427129978,14.6354831 0.301503514,14.5852325 0.201002342,14.4847313 C1.60982339e-15,14.283729 1.60982339e-15,13.9571002 0.201002342,13.7560978 L6.60795201,7.34914815 L0.201002342,0.94219848 C7.21644966e-16,0.741196138 7.21644966e-16,0.414567331 0.201002342,0.213564989 C0.402004685,0.0125626464 0.728633492,0.0125626464 0.929635834,0.213564989 L7.70090225,6.9848314 C7.90190459,7.18583374 7.90190459,7.51246255 7.70090225,7.71346489 L0.929635834,14.4847313 L0.929635834,14.4847313 Z" id="Shape"></path>
                </g>
            </g>
        </g>
    </g>
</svg>