<?xml version="1.0" encoding="utf-8"?>
<!-- Generator: Adobe Illustrator 24.0.0, SVG Export Plug-In . SVG Version: 6.00 Build 0)  -->
<svg version="1.1" id="Layer_1" xmlns="http://www.w3.org/2000/svg" xmlns:xlink="http://www.w3.org/1999/xlink" x="0px" y="0px"
	 viewBox="0 0 252.5 41.3" style="enable-background:new 0 0 252.5 41.3;" xml:space="preserve">
<style type="text/css">
	.st0{fill:#B3B3B3;stroke:#000000;stroke-width:0.755;stroke-miterlimit:10;}
	.st1{fill:#666666;}
	.st2{opacity:0.2;}
	.st3{fill:none;stroke:#000000;stroke-width:0.755;stroke-miterlimit:10;}
	.st4{opacity:0.1;enable-background:new    ;}
	.st5{fill:#808080;}
	.st6{fill:none;stroke:#000000;stroke-width:0.3775;stroke-miterlimit:10;}
	.st7{fill:#E6E6E6;}
	.st8{fill:none;stroke:#000000;stroke-width:0.5662;stroke-miterlimit:10;}
	.st9{opacity:0.3;}
	.st10{fill:none;}
	.st11{opacity:0.7;}
	.st12{fill:#FFFFFF;}
	.st13{opacity:0.6;}
	.st14{opacity:0.1;}
	.st15{fill:#7FC899;}
	.st16{fill:#598C6B;}
	.st17{fill:#D9EFE1;}
	.st18{fill:#6BA981;}
	.st19{fill:#518061;}
	.st20{fill:#B3B3B3;}
	.st21{opacity:0.2;enable-background:new    ;}
	.st22{opacity:0.4;enable-background:new    ;}
	.st23{fill:#147066;}
	.st24{fill:#2D2D2D;}
</style>
<g>
	<g>
		<path class="st0" d="M19.2,33.4H50c1.1,0,2-0.9,2-2v-1.1H17.2v1.1C17.2,32.5,18.1,33.4,19.2,33.4z"/>
		<path class="st1" d="M47.3,7.4H23.9c-3,0-5.5,2.4-5.5,5.5v3.4V18v1c0,0.9,0.7,1.6,1.6,1.6h5.2c0.9,0,1.6-0.7,1.6-1.6v-0.5V18
			c0.2-1,1.1-1.7,2.2-1.7h7.1c1.1,0,1.9,0.7,2.2,1.7v0.5v11.9h13.6V18v-1.7v-4.2C51.9,9.5,49.9,7.4,47.3,7.4z"/>
		<g class="st2">
			<path d="M47.9,30.4v1.7c0,0.7-0.6,1.3-1.3,1.3h4.1c0.7,0,1.3-0.6,1.3-1.3v-1.7C51.9,30.4,47.9,30.4,47.9,30.4z"/>
			<g>
				<path d="M24.9,18v0.5V19c0,0.9-0.7,1.6-1.6,1.6h2c0.9,0,1.6-0.7,1.6-1.6v-0.5V18c0.2-1,1.1-1.7,2.2-1.7h-2
					C26,16.2,25.1,17,24.9,18z"/>
				<path d="M47.3,7.4h-2c2.5,0,4.6,2.1,4.6,4.6v4.2v1.7v12.4h2V18v-1.7v-4.2C51.9,9.5,49.9,7.4,47.3,7.4z"/>
			</g>
		</g>
		<path class="st3" d="M47.3,7.4H23.9c-3,0-5.5,2.4-5.5,5.5v3.4V18v1c0,0.9,0.7,1.6,1.6,1.6h5.2c0.9,0,1.6-0.7,1.6-1.6v-0.5V18
			c0.2-1,1.1-1.7,2.2-1.7h7.1c1.1,0,1.9,0.7,2.2,1.7v0.5v11.9h13.6V18v-1.7v-4.2C51.9,9.5,49.9,7.4,47.3,7.4z"/>
		<g class="st2">
			<path d="M51,26.4c-0.1-0.8-0.2-1.7-0.2-2.5s-0.1-1.7-0.1-2.5s0-1.7,0.1-2.5c0-0.8,0.1-1.7,0.2-2.5c0.1,0.8,0.2,1.7,0.2,2.5
				s0.1,1.7,0.1,2.5s0,1.7-0.1,2.5C51.2,24.7,51.1,25.5,51,26.4z"/>
		</g>
		<path class="st1" d="M53.5,19.3h-0.7v-8h0.7c0.7,0,1.2,0.5,1.2,1.2v5.6C54.7,18.8,54.2,19.3,53.5,19.3z"/>
		<path class="st4" d="M53.7,11.3h-0.4c0.6,0,1,0.4,1,0.8v6.3c0,0.5-0.4,0.8-1,0.8h0.4c0.6,0,1-0.4,1-0.8v-6.3
			C54.7,11.7,54.3,11.3,53.7,11.3z"/>
		<path class="st5" d="M45.3,6.6h-1.2c-0.1,0-0.2-0.1-0.2-0.2V4.3c0-0.1,0.1-0.2,0.2-0.2h1.2c0.1,0,0.2,0.1,0.2,0.2v2.1
			C45.6,6.5,45.5,6.6,45.3,6.6z"/>
		<path class="st6" d="M45.3,6.6h-1.2c-0.1,0-0.2-0.1-0.2-0.2V4.3c0-0.1,0.1-0.2,0.2-0.2h1.2c0.1,0,0.2,0.1,0.2,0.2v2.1
			C45.6,6.5,45.5,6.6,45.3,6.6z"/>
		<path class="st4" d="M45.4,4h-0.5c0.1,0,0.2,0,0.2,0.1v2.4c0,0-0.1,0.1-0.2,0.1h0.5c0.1,0,0.2,0,0.2-0.1V4.1
			C45.6,4.1,45.5,4,45.4,4z"/>
		<circle class="st7" cx="44.9" cy="20.6" r="3"/>
		<path class="st4" d="M45.6,17.6c-0.2,0-0.4-0.1-0.7-0.1c1.2,0.6,1.9,2,1.6,3.4c-0.3,1.4-1.5,2.3-2.9,2.3c0.2,0.1,0.4,0.2,0.6,0.2
			c1.6,0.4,3.2-0.6,3.6-2.3C48.3,19.6,47.2,18,45.6,17.6z"/>
		<path class="st6" d="M53.5,19.3h-0.7v-8h0.7c0.7,0,1.2,0.5,1.2,1.2v5.6C54.7,18.8,54.2,19.3,53.5,19.3z"/>
		<circle class="st8" cx="44.9" cy="20.6" r="3"/>
		<g>
			<path d="M44.5,19c0.4-0.1,0.8-0.1,1.1,0c0.4,0.1,0.7,0.4,0.9,0.7c0.4,0.7,0.3,1.6-0.3,2.2s-1.5,0.6-2.2,0.2
				c-0.3-0.2-0.6-0.5-0.7-0.9c-0.1-0.4-0.1-0.8,0.1-1.1c-0.2,0.7,0.1,1.5,0.7,1.9c0.3,0.2,0.7,0.3,1,0.2c0.3,0,0.7-0.2,0.9-0.4
				c0.5-0.5,0.7-1.3,0.3-1.9C46,19.2,45.2,18.8,44.5,19z"/>
		</g>
		<g class="st9">
			<path class="st10" d="M50.9,26.9"/>
		</g>
		<g class="st9">
			<path class="st10" d="M50.9,17.6"/>
		</g>
		<g class="st11">
			<path class="st12" d="M42.7,20.9c-0.2-0.5-0.1-1.1,0.2-1.6c0.1-0.3,0.3-0.5,0.5-0.7c0.3-0.1,0.6-0.2,0.9-0.1v0.1
				c-0.2,0.2-0.3,0.4-0.5,0.6c-0.1,0.2-0.3,0.3-0.5,0.5C43,19.9,42.8,20.4,42.7,20.9L42.7,20.9z"/>
		</g>
		<g class="st2">
			<path d="M47.2,20.2c0.1,0.3,0.2,0.6,0.2,0.9s-0.1,0.6-0.3,0.9s-0.4,0.5-0.7,0.6s-0.6,0.2-0.9,0.2c0.5-0.3,0.9-0.7,1.1-1.1
				C47,21.2,47.1,20.8,47.2,20.2z"/>
		</g>
		<g class="st13">
			<path class="st12" d="M20,17.6c-0.1-1-0.1-2.1-0.2-3.1c0-0.5-0.1-1,0-1.6c0-0.6,0.2-1.1,0.4-1.6c0.2-0.5,0.5-1,0.9-1.5
				c0.4-0.4,0.9-0.8,1.4-1s1.1-0.4,1.7-0.4s1.1,0.1,1.6,0.2v0.1c-0.5,0.1-1.1,0.2-1.5,0.3c-0.5,0.1-0.9,0.3-1.3,0.5
				c-0.8,0.5-1.6,1.1-2,1.9c-0.2,0.4-0.4,0.9-0.5,1.4s-0.1,1-0.1,1.5C20.2,15.5,20.1,16.6,20,17.6L20,17.6L20,17.6z"/>
		</g>
		<g class="st14">
			<path d="M50.9,31c0.2,0.2,0.2,0.4,0.3,0.6c0,0.1,0,0.2,0,0.3c0,0.2,0,0.3-0.1,0.4s-0.2,0.2-0.3,0.3c-0.1,0-0.2,0.1-0.2,0.1
				c-0.1,0-0.1,0-0.2,0c-0.2,0-0.4-0.1-0.6-0.2c0.2-0.1,0.4-0.1,0.6-0.2c0.1,0,0.1-0.1,0.2-0.1c0-0.1,0-0.1,0.1-0.2
				c0-0.1,0-0.1,0-0.2s0-0.2,0-0.3C50.7,31.4,50.7,31.2,50.9,31z"/>
		</g>
		<g>
			<path class="st15" d="M23.9,34.6c-0.1-0.1-0.2-0.1-0.3-0.2l0.1-0.1C23.8,34.4,23.9,34.5,23.9,34.6L23.9,34.6 M23.4,34.3
				c-0.1-0.1-0.2-0.1-0.3-0.2V34C23.3,34.1,23.3,34.1,23.4,34.3L23.4,34.3 M22.8,33.9c-0.1,0-0.2-0.1-0.3-0.1v-0.1
				C22.7,33.8,22.8,33.8,22.8,33.9L22.8,33.9 M22.3,33.7c-0.1,0-0.2-0.1-0.3-0.1v-0.1C22.1,33.5,22.2,33.5,22.3,33.7L22.3,33.7
				 M21.7,33.4c-0.1,0-0.2-0.1-0.3-0.1v-0.1C21.6,33.2,21.7,33.3,21.7,33.4L21.7,33.4 M21.1,33.1c-0.1,0-0.2-0.1-0.3-0.1v-0.1
				C21,33,21.1,33,21.1,33.1L21.1,33.1 M20.5,32.9c-0.1,0-0.2-0.1-0.3-0.1v-0.1C20.4,32.7,20.5,32.8,20.5,32.9L20.5,32.9 M20,32.6
				c-0.1,0-0.2-0.1-0.3-0.1v-0.1C19.8,32.5,19.9,32.5,20,32.6L20,32.6L20,32.6 M19.3,32.4c-0.1,0-0.2-0.1-0.3-0.1v-0.1
				C19.2,32.3,19.3,32.3,19.3,32.4L19.3,32.4 M18.7,32.2c-0.1,0-0.2-0.1-0.3-0.1V32C18.5,32.1,18.7,32.1,18.7,32.2L18.7,32.2
				L18.7,32.2 M18.1,32c-0.1,0-0.2-0.1-0.3-0.1v-0.1C17.9,31.9,18,31.9,18.1,32L18.1,32 M17.5,31.9c-0.1,0-0.2,0-0.3-0.1v-0.1
				C17.3,31.8,17.4,31.8,17.5,31.9L17.5,31.9 M16.8,31.8c-0.1,0-0.2,0-0.3,0v-0.1C16.6,31.7,16.7,31.7,16.8,31.8L16.8,31.8
				L16.8,31.8C16.8,31.7,16.8,31.7,16.8,31.8L16.8,31.8 M16.2,31.7c-0.1,0-0.2,0-0.3,0v-0.1C15.9,31.6,16.1,31.6,16.2,31.7
				L16.2,31.7 M14.5,31.7L14.5,31.7c0.1-0.1,0.2-0.1,0.3-0.1v0.1C14.7,31.7,14.6,31.7,14.5,31.7 M15.5,31.7c-0.1,0-0.2,0-0.3,0v-0.1
				C15.3,31.6,15.4,31.6,15.5,31.7L15.5,31.7 M13.9,31.7l0.1-0.2h0.1v0.1h0.1v0.1C14.1,31.7,14,31.7,13.9,31.7L13.9,31.7 M14.3,31.3
				L14.3,31.3l0.1-0.3h0.1L14.3,31.3 M14.7,30.9L14.7,30.9l0.1-0.3h0.1L14.7,30.9 M15.7,30.9c0.7-0.3,1.6-0.5,2.4-0.6
				c0.2,0,0.4,0,0.5,0c0.7,0,1.3,0.1,1.9,0.2c0.8,0.2,1.5,0.6,2.2,1c0.6,0.4,1.2,0.9,1.7,1.5c-0.5-0.5-1.1-1-1.7-1.4
				c-0.3-0.2-0.7-0.4-1-0.5c-0.4-0.2-0.7-0.3-1.1-0.4c-0.6-0.2-1.3-0.3-2-0.3c-0.1,0-0.3,0-0.4,0c-0.4,0-0.8,0.1-1.2,0.2
				C16.5,30.6,16.1,30.7,15.7,30.9 M15,30.4L15,30.4l0.1-0.3h0.1L15,30.4 M15.4,29.9L15.4,29.9l0.1-0.3h0.1L15.4,29.9 M16.7,30
				c0.7-0.3,1.6-0.5,2.4-0.6c0.2,0,0.4,0,0.5,0c0.7,0,1.3,0.1,1.9,0.2c0.8,0.2,1.5,0.5,2.2,1c0.6,0.4,1.2,0.9,1.7,1.5
				c-0.5-0.5-1.1-1-1.8-1.4c-0.3-0.2-0.7-0.4-1-0.5c-0.4-0.2-0.7-0.3-1.1-0.4c-0.6-0.2-1.3-0.3-2-0.3c-0.1,0-0.3,0-0.4,0
				c-0.4,0-0.8,0.1-1.2,0.2C17.5,29.8,17.1,29.9,16.7,30 M15.8,29.5L15.8,29.5L15.8,29.5l0.1-0.2H16L15.8,29.5L15.8,29.5 M16.2,29
				L16.2,29c0-0.1,0.1-0.2,0.2-0.2l0.1,0.1C16.4,28.9,16.3,28.9,16.2,29 M17.3,29.3c0.8-0.3,1.7-0.5,2.5-0.6c0.2,0,0.4,0,0.6,0
				c0.7,0,1.4,0.1,2,0.2c0.8,0.2,1.6,0.5,2.3,1c0.7,0.4,1.3,0.9,1.8,1.5c-0.6-0.5-1.2-1-1.9-1.4c-0.7-0.4-1.5-0.7-2.3-0.9
				c-0.7-0.2-1.4-0.3-2.1-0.3c-0.2,0-0.3,0-0.5,0c-0.4,0-0.9,0.1-1.3,0.2C18.2,29,17.7,29.1,17.3,29.3 M15,31.1L15,31.1
				c0.1-0.3,0.3-0.5,0.5-0.8s0.4-0.5,0.6-0.7s0.4-0.5,0.7-0.7c0.2-0.1,0.3-0.2,0.5-0.2c0.1,0,0.2,0,0.3,0c0.1,0,0.2,0,0.3,0l0,0
				c-0.2,0-0.3,0.1-0.5,0.1c-0.1,0.1-0.3,0.2-0.4,0.3l-0.4,0.3c-0.1,0.1-0.3,0.2-0.4,0.3c-0.2,0.2-0.5,0.4-0.7,0.7
				C15.4,30.6,15.2,30.8,15,31.1 M16.7,28.7L16.7,28.7c0.1-0.1,0.2-0.2,0.3-0.2v0.1C16.9,28.6,16.8,28.6,16.7,28.7 M17.3,28.4
				L17.3,28.4c0.1-0.1,0.2-0.1,0.3-0.2v0.1C17.5,28.4,17.4,28.4,17.3,28.4 M18,28.3L18,28.3c0.1-0.1,0.2-0.1,0.3-0.1v0.1
				C18.2,28.2,18.1,28.2,18,28.3 M18.6,28.1L18.6,28.1c0.1-0.1,0.2-0.1,0.3-0.1v0.1C18.8,28.1,18.7,28.1,18.6,28.1 M19.3,28L19.3,28
				c0.1-0.1,0.2-0.1,0.3-0.1V28C19.5,27.9,19.4,28,19.3,28 M23.6,27.9c-0.1,0-0.2,0-0.3,0v-0.1C23.4,27.8,23.5,27.8,23.6,27.9
				L23.6,27.9 M19.9,27.9L19.9,27.9c0.1-0.1,0.2-0.1,0.3-0.1v0.1C20.1,27.9,20,27.9,19.9,27.9 M22.9,27.8c-0.1,0-0.2,0-0.3,0v-0.1
				C22.7,27.7,22.8,27.7,22.9,27.8L22.9,27.8 M20.6,27.8L20.6,27.8c0.1-0.1,0.2-0.1,0.3-0.1v0.1C20.8,27.8,20.7,27.8,20.6,27.8
				 M22.2,27.8c-0.1,0-0.2,0-0.3,0v-0.1C22,27.7,22.1,27.7,22.2,27.8L22.2,27.8 M21.2,27.8L21.2,27.8c0.1-0.1,0.2-0.1,0.3-0.1v0.1
				C21.5,27.8,21.4,27.8,21.2,27.8 M21.7,27.3c-2,0-3.7,0.4-4.8,0.8c-0.6,0.2-1.1,0.5-1.5,1l-1.9,2.4c-0.1,0.1-0.1,0.3,0,0.4
				c0,0,0,0,0.1,0.1c0.2,0,0.3,0,0.5,0c0.3,0,0.7-0.1,1-0.1c3.4,0,7,1.8,8.9,3l0.3-0.2c0,0,0,0-0.1,0l0.1-0.1c0,0,0.1,0,0.1,0.1
				L28,32c0.3-0.2,0.4-0.7,0.2-1c-1.2-1.5-2.5-2.4-3.9-3l0,0c-0.1,0-0.2,0-0.3-0.1v-0.1h0.1c-0.6-0.2-1.3-0.4-1.9-0.6
				C22,27.3,21.9,27.3,21.7,27.3"/>
			<path class="st16" d="M13.6,32c0.1,0,0.1,0.1,0.2,0.1c0,0,0,0,0.1,0s0.1,0,0.2,0C13.9,32,13.8,32,13.6,32"/>
			<path class="st16" d="M25,35.2c-0.1,0-0.1,0-0.2-0.1L24.7,35l0.1-0.1l0.1,0.1C24.9,35.1,25,35.1,25,35.2L25,35.2L25,35.2L25,35.2
				 M25.3,35L25.3,35l0.2-0.2l0.1,0.1L25.3,35 M25.8,34.7L25.8,34.7l0.2-0.2l0.1,0.1L25.8,34.7 M26.4,34.3L26.4,34.3l0.2-0.2
				l0.1,0.1L26.4,34.3 M26.9,33.9L26.9,33.9l0.2-0.2l0.1,0.1L26.9,33.9 M27.4,33.5L27.4,33.5l0.2-0.2l0.1,0.1L27.4,33.5 M27.9,33.2
				L27.9,33.2l0.2-0.2l0.1,0.1L27.9,33.2 M28.4,32.8L28.4,32.8l0.2-0.2l0.1,0.1L28.4,32.8 M28.9,32.4L28.9,32.4l0.2-0.2l0.1,0.1
				L28.9,32.4 M29.4,32L29.4,32l0.2-0.2l0.1,0.1L29.4,32 M29.8,31.6L29.8,31.6L29.8,31.6c-0.1-0.1-0.1-0.1-0.1-0.1s0-0.1-0.1-0.1
				h0.1C29.7,31.4,29.7,31.5,29.8,31.6C29.8,31.4,29.8,31.5,29.8,31.6L29.8,31.6 M29.5,31.1c-0.1-0.1-0.1-0.1-0.2-0.2h0.1
				C29.4,30.9,29.5,31,29.5,31.1L29.5,31.1 M29.1,30.7c-0.1-0.1-0.1-0.1-0.2-0.2H29C29,30.5,29.1,30.6,29.1,30.7L29.1,30.7
				 M28.6,30.3c-0.1-0.1-0.1-0.1-0.2-0.2h0.1C28.5,30.1,28.6,30.2,28.6,30.3L28.6,30.3 M28.2,29.9c-0.1-0.1-0.2-0.1-0.2-0.2v-0.1
				C28.1,29.7,28.2,29.8,28.2,29.9L28.2,29.9 M27.7,29.5c-0.1-0.1-0.2-0.1-0.3-0.2l0.1-0.1C27.6,29.3,27.7,29.4,27.7,29.5L27.7,29.5
				 M27.2,29.2c-0.1-0.1-0.2-0.1-0.3-0.2v-0.1C27,29,27.1,29.1,27.2,29.2L27.2,29.2 M26.6,28.9c-0.1,0-0.2-0.1-0.3-0.1v-0.1
				C26.5,28.7,26.6,28.8,26.6,28.9L26.6,28.9 M26.1,28.6c-0.1,0-0.2-0.1-0.3-0.1v-0.1C25.9,28.4,26,28.5,26.1,28.6L26.1,28.6
				 M25.5,28.4c-0.1,0-0.2-0.1-0.3-0.1v-0.1C25.3,28.2,25.4,28.3,25.5,28.4L25.5,28.4 M24.8,28.2c-0.1,0-0.2-0.1-0.3-0.1V28
				C24.7,28,24.8,28.1,24.8,28.2L24.8,28.2 M22.1,27.3c0.6,0.1,1.3,0.3,1.9,0.6c0.1,0,0.1,0,0.2,0l0,0c1.4,0.6,2.8,1.6,3.9,3
				c0.2,0.3,0.2,0.7-0.2,1l-3.6,2.7c0.1,0,0.1,0.1,0.2,0.1l0,0l0,0l0,0l-0.1,0.1c-0.1,0-0.1-0.1-0.2-0.1l-0.3,0.2
				c0.2,0.1,0.4,0.3,0.6,0.4c0.1,0.1,0.3,0.1,0.4,0.1c0.2,0,0.4-0.1,0.5-0.2l1.1-0.8l0,0l0.1-0.1l0,0l3.3-2.5
				c0.3-0.2,0.3-0.6,0.1-0.8C27.8,28.3,24.8,27.4,22.1,27.3"/>
			<path d="M11.5,28.2c-1.7,0-3,2.1-3.5,3c-0.2,0.4-0.2,0.8-0.1,1.1c0.1,0.3,0.4,0.5,0.8,0.6c0.1,0,0.3,0,0.4,0
				c1.4,0,3.5-1.2,4.4-1.8l0.3-0.3c-0.2,0.1-3,2-4.7,2c-0.1,0-0.3,0-0.4,0c-0.3-0.1-0.5-0.2-0.7-0.5c-0.1-0.3-0.1-0.7,0.1-1
				c0.5-0.9,1.7-2.8,3.4-2.9h4.4c0.1,0,0.1-0.1,0.2-0.1L11.5,28.2"/>
			<path d="M26.7,34.5l-0.1,0.1l0,0L26.7,34.5L26.7,34.5 M29.7,32.5l-0.2,0.1c0.1,0,4,0.2,5.7,1.6c1,0.7,0.9,2.2,0,3.2
				c-0.5,0.5-1.2,0.8-1.9,0.8h-0.1c-1.7,0-3.8-1.2-6.4-3.7l-0.1,0.1c2.6,2.5,4.8,3.7,6.5,3.7h0.1c0.8,0,1.5-0.3,2-0.9
				c1-1.1,1-2.6,0-3.4C33.8,32.9,30.5,32.6,29.7,32.5"/>
			<path d="M13.6,32L13.6,32c-0.2-0.2-0.2-0.3-0.1-0.5l1.9-2.4c0.4-0.5,0.9-0.8,1.5-1c1.1-0.3,2.8-0.8,4.8-0.8c0.1,0,0.3,0,0.4,0
				c2.7,0.1,5.7,1,8,3.9c0.2,0.3,0.1,0.6-0.1,0.8l-3.3,2.5l-0.1,0.1l-1.1,0.8c-0.1,0.1-0.3,0.2-0.5,0.2s-0.3,0-0.4-0.1
				c-0.2-0.1-0.4-0.3-0.6-0.4c-1.9-1.2-5.4-3-8.9-3c-0.3,0-0.7,0-1,0.1c-0.1,0-0.1,0-0.2,0c0,0,0,0-0.1,0
				C13.7,32.1,13.7,32.1,13.6,32 M21.8,27.1c-2,0-3.8,0.4-4.9,0.8c-0.3,0.1-0.6,0.2-0.8,0.4c-0.1,0-0.1,0.1-0.2,0.1
				c-0.2,0.2-0.4,0.4-0.6,0.6l-1.4,1.8l-0.3,0.3l-0.2,0.2c-0.2,0.2-0.2,0.5,0,0.7c0.1,0.2,0.3,0.2,0.5,0.2H14
				c0.4-0.1,0.7-0.1,1.1-0.1c3.9,0,8.1,2.5,9.3,3.4c0.2,0.1,0.4,0.2,0.6,0.2s0.5-0.1,0.7-0.2l1.1-0.8l0.1-0.1l2.6-2l0.2-0.1l0.5-0.3
				c0.4-0.3,0.5-0.8,0.2-1.1C27.9,27.9,24.6,27.1,21.8,27.1"/>
			<path class="st12" d="M14,31.5l-0.1,0.2H14c0.1,0,0.1,0,0.2,0v-0.1C14.1,31.6,14.1,31.6,14,31.5L14,31.5L14,31.5"/>
			<path class="st12" d="M24.8,35L24.8,35c0,0.1,0,0.1,0.1,0.1s0.1,0.1,0.2,0.1l0,0v-0.1l0,0H25C24.9,35.1,24.8,35,24.8,35
				 M24.5,34.8L24.5,34.8L24.5,34.8L24.5,34.8 M25.5,34.8L25.2,35l0.1,0.1L25.5,34.8L25.5,34.8 M24.2,34.7L24.2,34.7
				C24.2,34.7,24.2,34.8,24.2,34.7c0.1,0.1,0.1,0.2,0.2,0.2l0.1-0.1C24.5,34.8,24.4,34.8,24.2,34.7C24.3,34.7,24.3,34.7,24.2,34.7
				 M26,34.4l-0.3,0.2l0.1,0.1L26,34.4L26,34.4 M23.7,34.3L23.7,34.3c0,0.1,0.1,0.2,0.2,0.2l0.1-0.1C23.9,34.5,23.8,34.4,23.7,34.3
				 M26.5,34.1l-0.3,0.2l0.1,0.1L26.5,34.1L26.5,34.1 M23.2,34L23.2,34c0,0.1,0.1,0.2,0.2,0.2v-0.1C23.3,34.1,23.3,34.1,23.2,34
				 M22.6,33.7L22.6,33.7c0,0.1,0.1,0.2,0.2,0.2v-0.1C22.8,33.8,22.7,33.8,22.6,33.7 M27.1,33.7l-0.3,0.2l0.1,0.1L27.1,33.7
				L27.1,33.7 M22,33.4L22,33.4c0.1,0.1,0.1,0.2,0.2,0.2v-0.1C22.2,33.5,22.1,33.5,22,33.4 M27.6,33.3l-0.3,0.2l0.1,0.1L27.6,33.3
				L27.6,33.3 M21.5,33.2L21.5,33.2c0.1,0.1,0.2,0.2,0.2,0.2v-0.1C21.7,33.3,21.6,33.2,21.5,33.2 M28.1,32.9l-0.3,0.2l0.1,0.1
				L28.1,32.9L28.1,32.9 M20.9,32.9L20.9,32.9c0.1,0.1,0.2,0.1,0.3,0.2V33C21.1,33,21,33,20.9,32.9 M20.3,32.7L20.3,32.7
				c0.1,0.1,0.2,0.1,0.3,0.2v-0.1C20.5,32.8,20.4,32.7,20.3,32.7 M28.6,32.5l-0.3,0.2l0.1,0.1L28.6,32.5L28.6,32.5 M19.7,32.4
				L19.7,32.4c0.1,0.1,0.2,0.1,0.3,0.2v-0.1l0,0C19.9,32.5,19.8,32.5,19.7,32.4 M19.1,32.2L19.1,32.2c0.1,0.1,0.2,0.1,0.3,0.2v-0.1
				C19.3,32.3,19.2,32.3,19.1,32.2 M29.1,32.2l-0.3,0.2l0.1,0.1L29.1,32.2L29.1,32.2 M18.4,32.1L18.4,32.1c0.1,0.1,0.2,0.1,0.3,0.2
				v-0.1l0,0C18.7,32.1,18.5,32.1,18.4,32.1 M17.8,31.9L17.8,31.9C17.9,32,18,32,18.1,32v-0.1C18,31.9,17.9,31.9,17.8,31.9
				 M29.6,31.8L29.3,32l0.1,0.1L29.6,31.8L29.6,31.8 M17.2,31.8L17.2,31.8c0.1,0.1,0.2,0.1,0.3,0.1v-0.1
				C17.4,31.8,17.3,31.8,17.2,31.8 M16.8,31.7L16.8,31.7L16.8,31.7L16.8,31.7 M16.5,31.7L16.5,31.7c0.1,0.1,0.2,0.1,0.3,0.1v-0.1
				C16.7,31.7,16.6,31.7,16.5,31.7 M15.8,31.6L15.8,31.6c0.1,0.1,0.2,0.1,0.3,0.1v-0.1C16.1,31.6,15.9,31.6,15.8,31.6 M14.8,31.6
				c-0.1,0-0.2,0-0.3,0v0.1C14.6,31.7,14.7,31.7,14.8,31.6L14.8,31.6 M15.2,31.6L15.2,31.6c0.1,0.1,0.2,0.1,0.3,0.1v-0.1
				C15.4,31.6,15.3,31.6,15.2,31.6 M29.7,31.3L29.7,31.3C29.7,31.4,29.7,31.4,29.7,31.3v0.2l0,0h0.1l0,0
				C29.8,31.5,29.8,31.4,29.7,31.3C29.8,31.4,29.7,31.3,29.7,31.3 M14.4,31.1l-0.2,0.2h0.1L14.4,31.1L14.4,31.1 M29.3,30.9
				L29.3,30.9c0,0.1,0.1,0.2,0.1,0.3h0.1C29.5,31,29.4,30.9,29.3,30.9 M14.8,30.6l-0.2,0.2h0.1L14.8,30.6L14.8,30.6 M28.9,30.4
				L28.9,30.4c0,0.1,0.1,0.2,0.1,0.3h0.1C29.1,30.6,29,30.5,28.9,30.4 M15.2,30.1L15,30.4h0.1L15.2,30.1L15.2,30.1 M28.5,30L28.5,30
				c0,0.1,0.1,0.2,0.2,0.2h0.1C28.6,30.2,28.5,30.1,28.5,30 M28,29.6L28,29.6c0,0.1,0.1,0.2,0.2,0.2l0.1-0.1
				C28.2,29.8,28.1,29.7,28,29.6 M15.5,29.7l-0.2,0.2h0.1L15.5,29.7L15.5,29.7 M27.5,29.3L27.5,29.3c0,0.1,0.1,0.2,0.2,0.2l0.1-0.1
				C27.7,29.4,27.6,29.3,27.5,29.3 M15.9,29.2l-0.1,0.1l-0.1,0.1h0.1L15.9,29.2C15.9,29.3,15.9,29.3,15.9,29.2L15.9,29.2 M27,29
				L27,29c0,0.1,0.1,0.2,0.2,0.2l0.1-0.1C27.1,29.1,27,29,27,29 M16.4,28.8c-0.1,0.1-0.2,0.1-0.3,0.2h0.1
				C16.3,28.9,16.4,28.9,16.4,28.8L16.4,28.8 M26.4,28.7L26.4,28.7c0.1,0.1,0.1,0.2,0.2,0.2v-0.1C26.6,28.8,26.5,28.7,26.4,28.7
				 M17,28.5c-0.1,0-0.2,0.1-0.3,0.1v0.1C16.8,28.6,16.9,28.6,17,28.5L17,28.5 M25.8,28.4L25.8,28.4c0.1,0.1,0.2,0.1,0.3,0.2v-0.1
				C26,28.5,25.9,28.4,25.8,28.4 M17.6,28.3c-0.1,0-0.2,0.1-0.3,0.1v0.1C17.4,28.4,17.5,28.4,17.6,28.3L17.6,28.3 M25.2,28.2
				L25.2,28.2c0.1,0.1,0.2,0.1,0.3,0.2v-0.1C25.4,28.3,25.3,28.2,25.2,28.2 M18.3,28.1c-0.1,0-0.2,0.1-0.3,0.1v0.1
				C18.1,28.2,18.2,28.2,18.3,28.1L18.3,28.1 M24.6,28L24.6,28c0.1,0.1,0.2,0.1,0.3,0.1V28C24.8,28.1,24.7,28,24.6,28 M18.9,28
				c-0.1,0-0.2,0-0.3,0.1v0.1C18.7,28.1,18.8,28.1,18.9,28L18.9,28 M23.9,27.9L23.9,27.9C24,28,24.1,28,24.2,28l0,0l0,0
				C24.1,28,24.1,28,23.9,27.9C24,27.9,23.9,27.9,23.9,27.9 M19.6,27.9c-0.1,0-0.2,0-0.3,0.1v0.1C19.4,28,19.5,27.9,19.6,27.9
				L19.6,27.9 M23.3,27.8L23.3,27.8c0.1,0.1,0.2,0.1,0.3,0.1v-0.1C23.5,27.8,23.4,27.8,23.3,27.8 M20.2,27.8c-0.1,0-0.2,0-0.3,0v0.1
				C20,27.9,20.1,27.9,20.2,27.8L20.2,27.8 M22.6,27.7L22.6,27.7c0.1,0.1,0.2,0.1,0.3,0.1v-0.1C22.8,27.7,22.7,27.7,22.6,27.7
				 M20.9,27.7c-0.1,0-0.2,0-0.3,0v0.1C20.7,27.8,20.8,27.8,20.9,27.7L20.9,27.7 M21.9,27.7L21.9,27.7c0.1,0.1,0.2,0.1,0.3,0.1v-0.1
				C22.1,27.7,22,27.7,21.9,27.7 M21.6,27.7c-0.1,0-0.2,0-0.3,0v0.1C21.4,27.8,21.5,27.8,21.6,27.7L21.6,27.7"/>
			<path class="st17" d="M17.7,28.6c-0.1,0-0.2,0-0.3,0c-0.2,0.1-0.3,0.1-0.5,0.2c-0.3,0.2-0.5,0.4-0.7,0.7
				c-0.2,0.2-0.4,0.5-0.6,0.7c-0.2,0.3-0.4,0.5-0.5,0.8l0,0c0.2-0.2,0.4-0.5,0.6-0.7c0.2-0.2,0.4-0.5,0.7-0.7
				c0.1-0.1,0.2-0.2,0.4-0.3l0.4-0.3c0.1-0.1,0.3-0.2,0.4-0.3c0.1-0.1,0.3-0.1,0.5-0.1l0,0C17.9,28.6,17.8,28.6,17.7,28.6"/>
			<path class="st18" d="M20.4,28.7c-0.2,0-0.4,0-0.6,0c-0.9,0.1-1.7,0.2-2.5,0.6c0.4-0.2,0.8-0.3,1.2-0.3c0.4-0.1,0.9-0.1,1.3-0.2
				c0.2,0,0.3,0,0.5,0c0.7,0,1.4,0.1,2.1,0.3c0.8,0.2,1.6,0.5,2.3,0.9c0.7,0.4,1.3,0.9,1.9,1.4c-0.5-0.6-1.2-1.1-1.8-1.5
				c-0.7-0.4-1.5-0.8-2.3-1C21.8,28.8,21.1,28.7,20.4,28.7"/>
			<path class="st18" d="M19.7,29.4c-0.2,0-0.4,0-0.5,0c-0.8,0.1-1.7,0.3-2.4,0.6c0.4-0.2,0.8-0.3,1.2-0.4c0.4-0.1,0.8-0.1,1.2-0.2
				C19.3,29.4,19.5,29.4,19.7,29.4c0.6,0,1.2,0.1,1.9,0.3c0.4,0.1,0.8,0.2,1.1,0.4c0.4,0.2,0.7,0.3,1,0.5c0.7,0.4,1.2,0.9,1.8,1.4
				c-0.5-0.5-1.1-1.1-1.7-1.5s-1.4-0.8-2.2-1C21,29.5,20.3,29.4,19.7,29.4"/>
			<path class="st18" d="M18.6,30.2c-0.2,0-0.4,0-0.5,0c-0.8,0.1-1.7,0.3-2.4,0.6c0.4-0.2,0.8-0.3,1.2-0.4c0.4-0.1,0.8-0.1,1.2-0.2
				C18.2,30.3,18.4,30.3,18.6,30.2c0.6,0.1,1.2,0.2,1.9,0.3c0.4,0.1,0.8,0.2,1.1,0.4c0.4,0.2,0.7,0.3,1,0.5c0.6,0.4,1.2,0.9,1.7,1.4
				c-0.5-0.5-1-1-1.7-1.5c-0.6-0.4-1.4-0.8-2.2-1C19.9,30.3,19.3,30.2,18.6,30.2"/>
			<path class="st18" d="M20.4,28.7c-0.2,0-0.4,0-0.6,0c-0.9,0.1-1.7,0.2-2.5,0.6c0.4-0.2,0.8-0.3,1.2-0.3c0.4-0.1,0.9-0.1,1.3-0.2
				c0.2,0,0.3,0,0.5,0c0.7,0,1.4,0.1,2.1,0.3c0.8,0.2,1.6,0.5,2.3,0.9c0.7,0.4,1.3,0.9,1.9,1.4c-0.5-0.6-1.2-1.1-1.8-1.5
				c-0.7-0.4-1.5-0.8-2.3-1C21.8,28.8,21.1,28.7,20.4,28.7"/>
			<path class="st18" d="M19.7,29.4c-0.2,0-0.4,0-0.5,0c-0.8,0.1-1.7,0.3-2.4,0.6c0.4-0.2,0.8-0.3,1.2-0.4c0.4-0.1,0.8-0.1,1.2-0.2
				C19.3,29.4,19.5,29.4,19.7,29.4c0.6,0,1.2,0.1,1.9,0.3c0.4,0.1,0.8,0.2,1.1,0.4c0.4,0.2,0.7,0.3,1,0.5c0.7,0.4,1.2,0.9,1.8,1.4
				c-0.5-0.5-1.1-1.1-1.7-1.5s-1.4-0.8-2.2-1C21,29.5,20.3,29.4,19.7,29.4"/>
			<path class="st18" d="M18.6,30.2c-0.2,0-0.4,0-0.5,0c-0.8,0.1-1.7,0.3-2.4,0.6c0.4-0.2,0.8-0.3,1.2-0.4c0.4-0.1,0.8-0.1,1.2-0.2
				C18.2,30.3,18.4,30.3,18.6,30.2c0.6,0.1,1.2,0.2,1.9,0.3c0.4,0.1,0.8,0.2,1.1,0.4c0.4,0.2,0.7,0.3,1,0.5c0.6,0.4,1.2,0.9,1.7,1.4
				c-0.5-0.5-1-1-1.7-1.5c-0.6-0.4-1.4-0.8-2.2-1C19.9,30.3,19.3,30.2,18.6,30.2"/>
			<path class="st19" d="M20.4,28.7c-0.2,0-0.4,0-0.6,0c-0.9,0.1-1.7,0.2-2.5,0.6c0.4-0.2,0.8-0.3,1.2-0.3c0.4-0.1,0.9-0.1,1.3-0.2
				c0.2,0,0.3,0,0.5,0c0.7,0,1.4,0.1,2.1,0.3c0.8,0.2,1.6,0.5,2.3,0.9c0.7,0.4,1.3,0.9,1.9,1.4c-0.5-0.6-1.2-1.1-1.8-1.5
				c-0.7-0.4-1.5-0.8-2.3-1C21.8,28.8,21.1,28.7,20.4,28.7"/>
			<path class="st19" d="M19.7,29.4c-0.2,0-0.4,0-0.5,0c-0.8,0.1-1.7,0.3-2.4,0.6c0.4-0.2,0.8-0.3,1.2-0.4c0.4-0.1,0.8-0.1,1.2-0.2
				C19.3,29.4,19.5,29.4,19.7,29.4c0.6,0,1.2,0.1,1.9,0.3c0.4,0.1,0.8,0.2,1.1,0.4c0.4,0.2,0.7,0.3,1,0.5c0.7,0.4,1.2,0.9,1.8,1.4
				c-0.5-0.5-1.1-1.1-1.7-1.5s-1.4-0.8-2.2-1C21,29.5,20.3,29.4,19.7,29.4"/>
			<path class="st19" d="M18.6,30.2c-0.2,0-0.4,0-0.5,0c-0.8,0.1-1.7,0.3-2.4,0.6c0.4-0.2,0.8-0.3,1.2-0.4c0.4-0.1,0.8-0.1,1.2-0.2
				C18.2,30.3,18.4,30.3,18.6,30.2c0.6,0.1,1.2,0.2,1.9,0.3c0.4,0.1,0.8,0.2,1.1,0.4c0.4,0.2,0.7,0.3,1,0.5c0.6,0.4,1.2,0.9,1.7,1.4
				c-0.5-0.5-1-1-1.7-1.5c-0.6-0.4-1.4-0.8-2.2-1C19.9,30.3,19.3,30.2,18.6,30.2"/>
		</g>
		<g>
			<path class="st20" d="M22.4,22.9v2.2v2.2c0,0.2,0,0.4,0,0.5s0,0.4-0.1,0.5c-0.1-0.2-0.1-0.4-0.1-0.5c0-0.2,0-0.4,0-0.5v-2.2v-2.2
				H22.4z"/>
			<path class="st20" d="M22.2,27.8c0-0.2,0-0.4,0-0.5v-2.2v-2.2h-0.1v2.2v2.2C22.1,27.5,22.1,27.6,22.2,27.8c0,0.2,0,0.4,0,0.5
				v-0.1C22.2,28.1,22.2,28,22.2,27.8z"/>
			<path class="st21" d="M22.3,22.9v2.2v2.2c0,0.2,0,0.4,0,0.5s0,0.3-0.1,0.4v0.1c0.1-0.2,0.1-0.4,0.1-0.5c0-0.2,0-0.4,0-0.5v-2.2
				V22.9L22.3,22.9L22.3,22.9z"/>
		</g>
		<path class="st1" d="M22.6,22.9h-0.7c-0.2,0-0.4-0.1-0.4-0.3l-0.4-2h2.3l-0.4,2C23,22.8,22.8,22.9,22.6,22.9z"/>
		<path class="st22" d="M22.9,20.6l-0.3,2c-0.1,0.2-0.2,0.3-0.4,0.3h0.4c0.2,0,0.4-0.1,0.4-0.3l0.3-2H22.9z"/>
		<path class="st6" d="M22.6,22.9h-0.7c-0.2,0-0.4-0.1-0.4-0.3l-0.4-2h2.3l-0.4,2C23,22.8,22.8,22.9,22.6,22.9z"/>
	</g>
	<g>
		<path class="st23" d="M62.6,10.6H68L72.5,21l4.4-10.4h5.4v21.2h-5.4v-6.1l0.3-4.3H77l-2.8,7.3h-3.7l-2.8-7.3h-0.2l0.4,4.3v6.1
			h-5.4L62.6,10.6L62.6,10.6z"/>
		<path class="st23" d="M103.7,31.8h-5.8l-1.4-4.2h-5.7l-1.3,4.3h-5.8l7.5-21.3h4.9L103.7,31.8z M95.2,22.8l-1.4-6.2h-0.2L92,22.8
			H95.2z"/>
		<path class="st23" d="M107.1,25.1c2.1,2.6,6.8,2.7,7,0.4c0.1-1.2-1.9-1.9-3.6-2.1c-3.4-0.5-6.5-2.7-6.5-6.7c0-4.2,3.8-6.4,7.7-6.4
			c2.6,0,5.1,0.7,7.3,3.4l-3.5,2.7c-2.2-2.4-6-2.3-6.1,0.2c0.1,1,1.2,1.6,2.8,2c3.8,0.7,7.6,2,7.3,7.2c-0.2,4.1-4.5,6.4-8.4,6.4
			c-2.5,0-5.2-1.3-7.2-3.8L107.1,25.1z"/>
		<path class="st23" d="M132.8,10.6h6.7l-8.4,10.2l8.4,11h-6.8l-5.4-7.6l-0.2,0.2v7.3h-5.4V10.6h5.4v7.9L132.8,10.6z"/>
		<path class="st24" d="M157.5,20.6c2.9,1.5,3.3,4.2,3,5.8c-0.5,3.4-2.8,5.5-7.6,5.5h-8.7V10.7h8.5c4,0,7,2.4,6.9,6.5
			C159.7,18.1,159.1,19.8,157.5,20.6z M152.8,19c2.6,0,2.7-3.8,0-3.8h-3.1V19H152.8z M152.8,27.2c3.2,0,3.2-4.3,0-4.3h-3.1v4.3
			H152.8z"/>
		<path class="st24" d="M180.6,31.9h-5.8l-1.4-4.3h-5.7l-1.3,4.3h-5.8l7.4-21.2h4.9L180.6,31.9z M172.2,22.8l-1.5-6.2h-0.2l-1.6,6.2
			H172.2z"/>
		<path class="st24" d="M182,10.6h5.1l5.1,9l1.8,4.3h0.2l-0.6-3.7v-9.6h5.3v21.2h-5.4l-4.8-8.4l-1.9-4.3h-0.1l0.7,4.1v8.5H182V10.6z
			"/>
		<path class="st24" d="M220.3,31.9h-5.8l-1.4-4.3h-5.7l-1.3,4.3h-5.8l7.4-21.2h4.9L220.3,31.9z M211.9,22.8l-1.5-6.2h-0.2l-1.6,6.2
			H211.9z"/>
		<path class="st24" d="M220.6,17.6c0-4.9,4.4-7.3,8.8-7.3s8.8,2.4,8.8,7.3v7.3c0,4.9-4.4,7.3-8.8,7.3s-8.8-2.4-8.8-7.3V17.6z
			 M226,24.9c0,1.6,1.7,2.3,3.4,2.3s3.4-0.8,3.4-2.3v-7.3c0-1.6-1.8-2.4-3.5-2.4s-3.4,0.8-3.4,2.4v7.3H226z"/>
	</g>
</g>
</svg>
